<?xml version="1.0" standalone="no"?>
<!DOCTYPE svg PUBLIC "-//W3C//DTD SVG 20010904//EN"
 "http://www.w3.org/TR/2001/REC-SVG-20010904/DTD/svg10.dtd">
<svg version="1.0" xmlns="http://www.w3.org/2000/svg"
 width="1024.000000pt" height="1024.000000pt" viewBox="0 0 1024.000000 1024.000000"
 preserveAspectRatio="xMidYMid meet">

<g transform="translate(0.000000,1024.000000) scale(0.100000,-0.100000)"
fill="#000000" stroke="none">
<path d="M3400 10213 c1 -16 2 -182 1 -370 l-1 -342 -27 -13 c-23 -11 -29 -21
-31 -56 -3 -47 9 -69 45 -83 l23 -8 0 -293 0 -293 -45 -19 c-25 -10 -61 -36
-80 -59 -30 -34 -35 -48 -35 -89 0 -27 6 -63 14 -82 17 -40 78 -92 117 -100
l29 -6 -2 -312 -3 -313 -40 -6 c-41 -5 -34 -15 15 -21 l25 -3 0 -327 0 -328
-27 -9 c-36 -13 -68 -66 -68 -113 0 -43 36 -92 75 -102 l25 -6 3 -343 2 -342
3 348 c2 295 4 347 16 347 22 0 66 63 72 102 6 40 -23 93 -61 110 l-25 11 0
329 0 328 218 0 c197 0 245 -5 243 -24 -1 -3 -1 -116 -1 -251 0 -210 2 -245
15 -245 12 0 15 38 17 258 l3 257 170 5 c94 3 204 3 247 1 l76 -3 7 -62 c12
-113 45 -267 75 -342 17 -41 30 -80 30 -87 0 -7 -22 -26 -50 -42 -27 -16 -48
-31 -46 -33 6 -5 83 36 91 48 11 19 22 10 60 -47 132 -200 297 -358 478 -457
l68 -37 -38 -26 c-21 -14 -47 -33 -58 -43 -11 -9 -42 -25 -70 -35 -76 -28
-129 -71 -265 -217 -68 -73 -174 -183 -235 -244 -60 -61 -168 -174 -240 -251
l-130 -139 -3 383 -2 382 -38 10 c-20 6 -62 15 -92 22 -30 6 -63 16 -72 21
-12 5 -18 5 -18 -2 0 -5 -16 -10 -35 -10 -53 0 -133 -20 -155 -38 -19 -16 -19
-33 -22 -526 l-3 -510 -80 -22 c-44 -12 -90 -23 -102 -23 l-23 -1 0 329 c0
217 -4 332 -10 336 -22 14 -331 35 -351 25 -17 -9 -19 -23 -20 -108 -2 -266
-16 -623 -25 -632 -5 -5 -36 -11 -69 -12 l-60 -3 -6 165 c-8 210 -7 200 -21
200 -10 0 -13 -50 -13 -215 0 -118 3 -215 8 -215 4 0 15 4 25 9 26 14 344 60
457 67 57 3 136 16 185 29 47 13 117 32 155 41 44 11 78 25 93 40 26 27 57 37
98 32 24 -2 29 -8 29 -30 -1 -16 0 -28 2 -28 1 0 12 19 24 42 12 23 45 67 73
98 29 30 65 71 80 90 56 71 733 763 779 797 27 20 80 48 120 63 46 18 73 35
78 48 5 13 24 26 47 33 49 14 87 -1 117 -47 l20 -31 125 -7 125 -7 40 29 c37
26 132 133 263 297 31 39 89 106 131 150 41 44 117 134 169 200 53 66 128 154
167 195 102 108 512 568 579 650 16 19 65 73 110 120 112 118 357 387 452 496
104 118 420 469 552 612 58 62 103 114 101 116 -2 3 -40 13 -83 23 l-79 19 49
31 c65 41 466 264 469 261 2 -2 -4 -25 -11 -53 -8 -27 -34 -128 -59 -222 -38
-150 -56 -205 -71 -222 -2 -2 -31 21 -63 52 -33 32 -64 57 -70 57 -5 0 -56
-52 -112 -116 -56 -64 -152 -171 -213 -239 -142 -156 -225 -250 -361 -405
-142 -162 -402 -451 -554 -614 -46 -50 -154 -172 -240 -271 -86 -99 -183 -209
-216 -245 -61 -66 -230 -262 -346 -402 -79 -95 -286 -331 -397 -452 -139 -152
-188 -175 -339 -158 -105 12 -113 15 -113 43 0 18 -3 17 -26 -10 -32 -39 -84
-50 -129 -28 -49 23 -120 2 -189 -56 -65 -57 -529 -533 -791 -815 -215 -230
-237 -246 -308 -223 -26 9 -52 6 -132 -14 -55 -13 -149 -32 -210 -40 -60 -9
-182 -27 -270 -41 -88 -14 -197 -28 -243 -31 -59 -4 -88 -11 -104 -24 -11 -11
-37 -23 -57 -29 -73 -20 -68 -39 -64 248 3 141 6 262 8 269 2 6 18 14 36 18
21 5 27 10 19 15 -10 6 -11 47 -6 191 4 101 8 188 9 194 1 5 -7 11 -19 13 -20
3 -21 -2 -27 -190 -6 -182 -8 -194 -28 -209 -21 -16 -22 -25 -29 -305 -4 -159
-5 -292 -3 -296 2 -5 18 -8 35 -8 l30 0 -6 -97 c-11 -164 -18 -220 -26 -198
-7 21 -20 -124 -20 -230 l0 -62 -115 -89 c-64 -49 -122 -90 -129 -92 -7 -2
-18 -13 -24 -26 -5 -13 -35 -41 -65 -62 -90 -64 -229 -168 -243 -182 -16 -16
-18 -32 -4 -32 6 0 10 6 10 14 0 8 73 68 163 134 89 66 173 132 187 147 47 51
212 169 222 159 4 -3 9 4 13 15 3 12 9 21 13 21 4 0 32 20 62 45 59 48 76 55
65 28 -4 -13 -3 -15 5 -7 13 13 20 144 10 187 -6 23 -8 8 -9 -54 l-1 -85 -64
-46 c-35 -26 -67 -44 -70 -41 -11 11 -6 137 9 233 18 110 34 217 41 278 l5 42
54 0 c38 0 57 4 63 16 9 15 73 43 104 44 25 0 31 -124 26 -560 l-3 -375 34 -3
c28 -3 33 -1 24 10 -7 9 -12 168 -14 473 l-4 460 35 2 c19 2 80 8 135 14 55 6
104 10 110 8 5 -3 8 -199 7 -516 -1 -459 3 -547 21 -500 4 8 6 8 6 0 2 -20
-97 -99 -333 -266 -126 -89 -288 -205 -360 -258 -214 -156 -635 -461 -726
-526 -385 -273 -563 -407 -614 -463 -121 -134 -159 -408 -86 -617 l29 -84 -29
-57 c-32 -64 -48 -123 -53 -197 -2 -34 -7 -49 -16 -47 -24 5 1 -20 53 -52 28
-18 98 -57 156 -87 57 -30 111 -60 118 -67 7 -6 19 -12 26 -12 12 0 126 -70
171 -105 22 -17 35 -19 35 -6 0 5 -20 21 -44 35 -46 27 -78 59 -38 37 28 -15
32 -14 25 5 -5 14 -3 14 16 3 12 -8 17 -15 11 -17 -6 -2 -8 -8 -4 -13 3 -5 13
-5 24 1 14 7 27 5 49 -8 37 -21 38 -32 6 -62 -33 -31 -32 -38 8 -37 20 0 66
-15 111 -36 43 -20 81 -37 85 -37 11 1 -100 59 -134 70 -44 14 -63 36 -38 44
22 6 104 0 158 -12 67 -16 234 -80 251 -96 8 -9 23 -16 32 -16 10 0 53 -18 96
-40 43 -22 82 -40 87 -40 5 0 21 -7 35 -16 19 -13 22 -20 13 -30 -6 -8 -15
-11 -20 -8 -5 3 -8 1 -7 -4 4 -13 -51 -64 -63 -57 -5 3 -6 0 -4 -7 3 -8 -7
-21 -22 -30 -16 -9 -73 -53 -128 -98 -55 -44 -146 -117 -202 -161 -104 -81
-119 -96 -110 -106 3 -3 32 18 64 45 95 83 212 178 317 258 74 56 106 75 123
71 19 -3 21 -2 12 10 -10 11 -6 20 16 43 26 27 54 34 71 17 4 -4 18 -4 30 -1
15 4 24 2 24 -5 0 -6 6 -11 13 -11 12 0 70 -28 140 -68 20 -12 38 -21 40 -20
1 0 27 -10 57 -24 30 -14 60 -27 65 -29 24 -10 126 -72 131 -80 3 -5 18 -9 34
-9 15 0 30 -3 32 -7 5 -13 108 -73 123 -73 8 0 30 -9 49 -21 45 -27 169 -93
227 -122 35 -18 43 -25 33 -34 -6 -7 -15 -9 -19 -5 -4 4 -5 2 -3 -3 1 -6 -29
-39 -67 -74 -39 -36 -72 -67 -75 -69 -3 -3 4 0 15 6 11 5 58 41 104 80 l84 70
36 -21 c20 -12 50 -31 66 -43 17 -11 56 -32 88 -44 31 -13 57 -27 57 -32 0 -4
6 -8 14 -8 8 0 36 -13 63 -30 26 -16 57 -31 68 -33 11 -1 37 -13 56 -25 20
-12 41 -22 47 -22 5 0 24 -13 41 -29 17 -16 31 -25 31 -20 0 8 70 -19 80 -32
3 -3 30 -12 60 -19 52 -12 89 -28 100 -41 5 -6 39 -13 172 -39 57 -11 190 2
268 26 30 9 71 17 92 18 20 1 35 3 33 6 -2 3 31 23 73 45 86 43 210 124 232
150 7 9 32 26 53 37 22 11 72 48 111 82 39 33 89 75 110 91 22 17 48 40 59 53
12 12 26 22 33 22 6 0 28 18 48 40 20 22 38 40 41 40 7 0 97 68 145 109 19 17
39 31 43 31 5 0 34 23 66 50 32 28 61 50 65 50 5 0 50 36 102 80 119 102 202
160 228 160 22 0 73 -24 186 -85 102 -56 297 -155 304 -155 3 0 106 -53 229
-117 203 -108 304 -158 427 -212 25 -11 70 -34 100 -52 33 -20 49 -26 41 -15
-8 9 -89 53 -180 97 -91 44 -202 98 -246 120 -44 23 -201 103 -350 178 -321
163 -469 242 -473 253 -2 4 -7 6 -12 3 -4 -3 -6 4 -3 15 3 12 8 18 11 16 2 -3
26 16 51 42 25 27 66 62 91 79 25 17 54 40 64 52 11 11 25 21 33 21 7 0 13 4
13 9 0 4 28 28 63 52 34 24 85 64 112 89 28 26 84 70 125 100 41 30 86 64 100
77 14 13 39 30 56 38 17 8 36 21 43 28 6 8 31 27 56 43 25 15 45 32 45 36 0 4
7 8 16 8 8 0 13 4 9 10 -3 5 12 14 34 21 36 11 48 9 113 -14 94 -33 100 -27 9
8 -39 16 -68 32 -65 36 3 5 0 9 -5 9 -19 0 22 40 118 113 51 40 103 79 115 87
11 8 51 41 88 73 37 32 69 58 72 58 7 -1 53 37 75 62 8 9 23 17 32 17 9 0 30
13 45 28 32 31 164 126 164 118 0 -3 23 17 52 44 29 28 57 50 62 50 5 0 32 17
60 38 28 21 58 41 66 45 55 26 140 90 224 172 39 37 84 73 161 126 54 38 138
105 189 151 11 10 29 21 40 24 12 4 23 10 26 13 10 14 80 63 80 57 0 -8 69 42
91 66 9 10 21 18 26 18 18 0 146 111 161 138 20 38 9 112 -27 178 l-29 54 24
67 c43 124 28 396 -29 512 -51 102 -166 177 -472 305 -71 29 -197 84 -280 120
l-150 66 -3 2005 c-2 1952 -2 2005 17 2005 28 0 71 39 71 63 -1 48 -58 81 -94
54 -17 -13 -18 -39 -17 -590 l2 -577 -65 0 c-57 0 -65 2 -71 21 -6 16 0 347
10 624 0 17 -73 35 -232 59 l-152 23 -62 -42 -62 -42 2 -320 2 -320 -78 3
c-44 2 -79 8 -79 14 -1 5 -2 21 -3 35 -1 30 -38 47 -156 75 -197 46 -279 46
-338 -1 -22 -17 -27 -28 -27 -67 l0 -47 -55 3 c-54 4 -55 5 -55 34 0 42 14 63
100 153 43 44 111 117 151 163 41 46 106 119 144 162 39 43 155 174 259 292
437 493 555 622 588 647 22 15 27 11 79 -71 16 -25 37 -49 46 -52 25 -10 66
25 81 70 44 130 172 615 172 652 0 15 -6 22 -18 22 -19 0 -128 -54 -192 -94
-19 -13 -73 -44 -120 -71 -112 -63 -328 -202 -362 -234 -33 -30 -27 -41 43
-77 26 -13 50 -28 54 -34 3 -6 -32 -50 -78 -98 -84 -87 -219 -238 -416 -467
-57 -66 -157 -176 -221 -245 -101 -108 -255 -281 -327 -369 -11 -14 -23 -24
-25 -21 -3 3 -17 41 -32 85 -31 87 -96 215 -123 236 -9 8 -36 40 -59 73 -78
106 -207 230 -296 283 -248 149 -408 202 -610 203 l-58 0 0 143 1 142 32 20
c44 28 57 77 30 113 -11 15 -30 32 -43 38 -21 12 -22 16 -21 149 l2 137 34 33
c25 23 35 41 35 62 0 33 -33 83 -56 83 -11 0 -14 27 -14 155 0 131 -2 155 -15
155 -13 0 -15 -24 -15 -153 0 -151 0 -154 -25 -177 -35 -33 -35 -101 -1 -135
22 -22 24 -34 31 -162 l7 -138 -31 -12 c-18 -6 -35 -22 -41 -38 -18 -49 -12
-76 27 -113 l38 -35 3 -133 4 -134 -98 0 c-234 -1 -506 -100 -722 -264 -82
-62 -184 -166 -235 -239 -40 -56 -137 -266 -165 -357 -22 -69 -42 -203 -42
-275 0 -40 -3 -80 -6 -88 -4 -12 -41 -15 -217 -17 -117 -1 -225 -3 -242 -4
-29 -1 -30 1 -33 46 -3 46 -3 47 40 66 61 27 129 91 162 151 23 43 29 68 33
146 3 52 4 95 1 95 -3 0 -24 -7 -47 -15 -38 -13 -42 -13 -47 3 -19 62 -129
250 -140 239 -8 -7 16 -60 51 -112 19 -29 37 -73 43 -104 9 -52 9 -53 -37
-121 -54 -80 -59 -76 -60 42 -1 42 -5 79 -10 82 -11 7 -21 -53 -21 -137 l0
-69 -52 51 c-69 68 -89 66 -38 -5 23 -30 48 -71 56 -89 17 -41 19 -105 3 -105
-6 0 -35 13 -63 30 -71 40 -94 84 -111 213 -15 116 -18 116 -16 2 3 -120 23
-181 80 -236 26 -25 68 -54 94 -65 46 -19 47 -19 47 -66 l0 -47 -222 6 c-146
4 -225 10 -230 17 -4 6 -6 147 -5 312 l2 301 47 22 c90 41 127 127 94 216 -20
50 -65 93 -107 102 -29 5 -29 6 -29 82 -1 42 -3 181 -6 309 l-6 232 27 0 c18
0 50 -18 91 -51 79 -63 104 -94 104 -129 0 -15 9 -39 21 -54 17 -22 29 -26 68
-26 41 0 49 3 59 25 7 14 12 38 12 54 0 23 53 121 66 121 2 0 2 -17 0 -37 -2
-21 -1 -53 1 -70 4 -27 10 -33 31 -33 l25 0 -5 84 -6 84 45 53 c25 30 76 101
114 160 67 103 69 105 103 101 25 -3 40 2 55 17 19 19 33 21 121 21 l100 0 30
42 c17 23 50 76 72 118 84 153 130 206 206 240 32 15 42 25 42 43 0 17 -7 27
-22 31 -38 10 -65 7 -78 -9 -7 -8 -20 -15 -30 -15 -19 0 -36 -31 -46 -87 -6
-37 -79 -171 -152 -281 -40 -60 -54 -66 -151 -60 -56 3 -73 8 -100 31 -50 42
-66 36 -101 -35 -50 -101 -100 -179 -161 -249 -31 -36 -82 -102 -114 -145 -32
-43 -60 -81 -62 -83 -2 -3 -9 1 -15 7 -7 7 -34 12 -60 12 -44 0 -54 5 -96 43
-26 24 -66 57 -88 75 -30 23 -44 42 -49 68 -3 20 -17 46 -31 59 l-24 22 3 367
c2 298 0 366 -11 366 -8 0 -13 -10 -12 -27z m2319 -347 c14 -17 7 -38 -19 -54
-24 -15 -47 -7 -55 19 -13 40 47 68 74 35z m-2295 -402 c28 -11 17 -23 -19
-22 -35 1 -46 12 -22 21 18 8 23 8 41 1z m36 -43 c0 -5 -7 -14 -15 -21 -16
-14 -18 -10 -9 14 6 17 24 22 24 7z m2256 -15 c11 -47 1 -71 -32 -74 -24 -2
-33 2 -42 22 -19 42 2 76 45 76 16 0 25 -8 29 -24z m-2026 -241 c18 -16 21
-17 45 -1 28 19 33 11 9 -15 -9 -10 -23 -15 -32 -12 -25 9 -52 45 -50 68 1 18
1 18 5 -1 2 -12 13 -30 23 -39z m1948 -181 c22 -6 23 -9 20 -138 l-3 -131 -95
-11 c-52 -6 -132 -21 -177 -33 -45 -11 -86 -21 -91 -21 -4 0 -25 33 -45 74
-21 40 -53 92 -73 114 l-35 41 38 16 c58 25 260 76 333 85 90 10 102 11 128 4z
m-471 -170 c69 -101 105 -163 99 -173 -3 -5 -41 -30 -85 -55 -80 -47 -218
-176 -280 -263 l-31 -43 -67 44 c-38 24 -96 58 -130 75 -35 17 -63 35 -63 39
0 31 169 217 255 280 88 65 228 152 246 152 9 0 34 -25 56 -56z m3203 44 c0
-10 2 -10 8 0 10 15 45 5 39 -12 -6 -19 -61 -13 -65 7 -2 9 1 17 7 17 6 0 11
-6 11 -12z m-2134 -26 c-4 -3 -14 2 -24 12 -16 18 -16 18 6 6 13 -6 21 -14 18
-18z m-2744 -142 c31 -24 58 -78 58 -115 0 -45 -39 -103 -85 -125 -34 -17 -46
-18 -80 -9 -22 6 -54 26 -71 45 -58 61 -52 141 15 197 42 35 124 38 163 7z
m3036 -62 c28 -29 68 -78 90 -108 22 -30 47 -63 56 -73 15 -16 13 -19 -29 -50
-43 -30 -64 -42 -169 -100 l-38 -22 -79 85 c-43 47 -78 91 -79 98 0 14 180
222 191 222 4 0 30 -24 57 -52z m-1234 -39 c-2 -4 3 -9 11 -12 15 -7 49 -67
71 -130 12 -35 12 -38 -1 -27 -13 11 -14 10 -9 -4 3 -9 10 -16 15 -16 20 0 7
-16 -27 -35 -19 -10 -47 -30 -61 -43 l-27 -25 -35 39 c-19 22 -59 65 -88 97
-63 69 -63 70 40 127 59 32 124 49 111 29z m911 -47 c-3 -3 -11 0 -18 7 -9 10
-8 11 6 5 10 -3 15 -9 12 -12z m61 6 c4 -7 3 -8 -4 -4 -15 9 -16 -6 -2 -22 5
-7 3 -6 -6 2 -9 8 -13 19 -10 25 9 14 13 14 22 -1z m-1037 -226 l33 -33 -36
-37 c-20 -20 -49 -55 -64 -79 -15 -24 -34 -43 -42 -43 -8 0 -33 11 -55 24
-110 66 -128 75 -139 69 -6 -3 -8 -2 -3 2 4 5 0 16 -9 26 -26 29 -10 61 77
153 l81 86 62 -67 c33 -37 76 -82 95 -101z m854 102 c4 -1 12 -2 17 -3 6 0 8
-12 4 -27 -4 -17 -2 -29 6 -34 10 -6 10 -12 -2 -29 -8 -11 -18 -18 -21 -14 -4
3 -7 -1 -7 -10 0 -31 -35 -18 -73 27 -20 25 -37 47 -37 49 0 3 10 3 23 1 12
-2 17 -2 11 1 -7 3 -10 14 -7 24 3 13 11 17 29 13 14 -2 24 0 24 7 0 7 5 9 13
4 6 -4 15 -8 20 -9z m232 -49 c26 -30 56 -68 66 -85 l19 -30 -28 -16 c-15 -9
-49 -31 -77 -49 -91 -59 -115 -65 -115 -30 0 8 -14 30 -31 50 -27 31 -30 37
-18 53 13 15 12 16 -4 3 -9 -8 -20 -11 -23 -8 -4 3 16 27 44 52 28 26 61 62
74 81 13 19 28 34 34 34 6 0 33 -25 59 -55z m-1684 14 c16 -11 68 -39 116 -61
97 -45 118 -58 106 -67 -15 -11 -81 -175 -98 -243 -15 -58 -19 -65 -38 -61
-12 2 -77 18 -144 35 l-121 31 5 36 c14 107 90 291 119 291 7 0 43 -14 80 -30
92 -43 91 -31 -1 13 -68 33 -87 52 -68 70 9 10 12 9 44 -14z m1039 -64 l0 -85
-30 0 c-42 0 -130 -20 -165 -38 -71 -36 -127 -88 -190 -176 -14 -18 -15 -18
-52 10 -20 15 -45 36 -54 45 -9 9 -22 18 -29 21 -31 10 32 90 149 188 65 55
79 63 161 89 77 24 99 28 163 30 l47 1 0 -85z m117 71 c89 -19 212 -76 249
-115 16 -17 34 -31 40 -31 20 0 104 -101 104 -127 0 -6 -25 -32 -56 -57 -69
-57 -61 -60 15 -6 31 22 60 40 64 40 25 0 97 -213 97 -287 l0 -33 -55 0 c-30
0 -55 -4 -55 -10 0 -5 23 -10 51 -10 l52 0 -6 -55 c-13 -131 -120 -365 -170
-371 -9 -1 -31 -14 -49 -29 -38 -32 -184 -102 -253 -121 -27 -8 -67 -14 -87
-14 l-38 0 0 94 0 93 49 5 c27 3 85 22 130 43 130 61 209 160 234 295 10 53
14 60 35 60 13 0 20 4 17 10 -3 6 -14 10 -24 10 -15 0 -19 11 -24 59 -8 73
-40 162 -68 187 l-21 19 19 -35 c25 -45 50 -122 58 -181 l6 -46 -77 -6 c-42
-4 -105 -7 -139 -7 l-62 0 -7 40 c-7 45 -61 106 -98 112 -23 3 -23 5 -26 151
l-3 147 28 0 c37 0 119 -23 163 -44 19 -10 59 -43 89 -74 29 -31 48 -48 40
-37 -28 43 -96 108 -133 127 -31 16 -147 47 -178 48 -5 0 -8 38 -8 85 0 97 -6
92 97 71z m2108 -46 c66 -17 123 -34 128 -39 9 -9 10 -1261 0 -1363 -3 -37
-10 -65 -14 -62 -5 3 -9 -1 -9 -9 0 -7 -14 -23 -30 -35 -24 -18 -29 -28 -24
-46 6 -27 -14 -46 -27 -25 -6 10 -10 5 -15 -18 -4 -18 -10 -33 -15 -33 -5 0
-9 -6 -9 -13 0 -7 -13 -40 -30 -72 -22 -42 -30 -73 -30 -109 0 -32 -3 -46 -9
-37 -17 27 -21 -134 -27 -1209 -3 -602 -9 -1120 -13 -1150 -8 -58 -17 1001
-26 3033 -6 1167 -5 1217 12 1217 10 0 72 -14 138 -30z m-2235 -280 c0 -149 0
-150 -23 -150 -25 0 -66 -25 -82 -49 -5 -9 -15 -32 -21 -51 -7 -23 -19 -37
-35 -41 -31 -9 -232 -11 -253 -3 -34 13 -9 133 47 233 70 123 201 207 330 210
l37 1 0 -150z m-689 94 c57 -25 110 -51 117 -58 11 -11 9 -27 -12 -95 -14 -45
-26 -93 -26 -106 0 -33 -9 -36 -71 -21 -30 8 -82 19 -117 26 -35 7 -72 20 -83
29 -18 16 -18 18 12 106 25 73 66 165 75 165 1 0 48 -21 105 -46z m184 -94 c4
-6 21 -17 38 -24 18 -8 41 -21 52 -29 19 -15 19 -15 -3 -88 -12 -41 -24 -91
-27 -111 l-6 -38 -79 0 -80 0 0 38 c0 53 25 163 49 217 19 43 42 57 56 35z
m-1202 -45 c-3 -9 -8 -14 -10 -11 -3 3 -2 9 2 15 9 16 15 13 8 -4z m653 -60
c64 -14 117 -25 120 -25 2 0 4 -36 4 -80 l0 -80 -150 0 -150 0 0 53 c0 28 3
76 6 105 8 63 5 63 170 27z m300 -75 c139 -29 130 -24 126 -70 l-4 -40 -134 0
-134 0 0 43 c0 60 10 87 30 87 10 0 62 -9 116 -20z m799 -25 c41 -16 59 -54
50 -102 -7 -41 -39 -63 -89 -63 -57 0 -76 21 -76 85 0 54 15 78 55 88 11 2 21
5 23 6 1 0 18 -6 37 -14z m1496 -64 c122 -36 133 -37 183 -16 44 18 96 26 96
14 0 -5 -22 -25 -48 -44 l-49 -35 -9 -1137 c-4 -626 -8 -1174 -8 -1218 0 -44
-1 -63 -4 -41 l-3 38 -23 -31 c-19 -25 -23 -40 -18 -76 4 -38 1 -49 -17 -64
-11 -10 -21 -30 -21 -45 0 -19 -5 -26 -18 -26 -29 0 -55 -36 -73 -98 -14 -52
-18 -57 -46 -60 l-30 -3 -6 -121 c-4 -67 -7 -241 -7 -387 0 -233 -6 -309 -23
-291 -7 7 -23 3502 -17 3674 0 4 8 6 18 3 9 -2 65 -19 123 -36z m-1655 -79
c23 -42 60 -72 89 -72 20 0 22 -6 28 -82 10 -124 8 -183 -5 -196 -8 -8 -9 -15
-3 -20 12 -9 20 -132 10 -162 -7 -21 -12 -22 -71 -17 -51 4 -87 16 -174 59
-61 29 -110 52 -110 49 0 -6 32 -30 70 -51 66 -36 64 -33 37 -86 -13 -27 -39
-85 -57 -129 -18 -44 -34 -81 -35 -82 0 -1 -36 16 -78 38 -78 41 -187 131
-187 154 0 7 46 57 102 110 93 88 101 97 83 107 -51 29 -125 138 -125 184 0
13 14 28 38 42 21 11 46 30 57 42 26 29 37 25 66 -20 55 -86 215 -227 235
-207 2 2 -14 12 -36 22 -56 25 -174 153 -208 223 -19 42 -28 52 -30 37 -6 -29
-18 -41 -79 -76 -46 -27 -57 -29 -68 -18 -12 12 -45 146 -45 179 0 8 67 11
239 8 l239 -3 18 -33z m554 24 c0 -35 -43 -146 -73 -188 -54 -77 -146 -139
-242 -164 -100 -27 -95 -33 -95 121 0 122 2 135 18 135 29 0 79 37 93 69 16
37 22 38 177 40 98 1 122 -2 122 -13z m-1370 -63 c15 -89 49 -211 66 -245 l14
-27 -128 -65 -128 -65 -16 27 c-35 58 -59 138 -78 255 -11 67 -20 137 -20 155
l0 32 139 0 139 0 12 -67z m313 -10 c10 -43 20 -88 23 -101 6 -19 0 -25 -42
-43 -42 -18 -169 -78 -184 -86 -9 -5 -60 133 -70 189 -6 28 -10 66 -10 84 l0
34 133 0 134 0 16 -77z m1980 -250 c-3 -181 -8 -817 -11 -1415 l-7 -1087 -83
39 -82 39 2 943 3 944 -105 28 c-132 35 -190 55 -190 66 0 5 21 26 46 47 71
59 174 210 225 332 36 86 55 172 64 293 l7 87 51 4 c29 2 59 4 68 5 15 2 16
-27 12 -325z m675 -1033 c-2 -742 -8 -1353 -12 -1357 -4 -5 -38 8 -74 28 l-67
35 -3 1140 c-2 626 0 1221 4 1322 l6 182 75 0 76 0 -5 -1350z m632 -107 c0
-876 -4 -1464 -10 -1473 -7 -12 -18 -10 -69 15 l-61 29 0 1310 c0 721 3 1368
7 1438 l6 127 51 4 c28 2 57 4 64 5 9 2 12 -295 12 -1455z m-3228 1204 c9 -19
41 -61 72 -94 31 -34 56 -63 56 -66 0 -3 -14 -14 -30 -24 -17 -11 -63 -50
-101 -88 l-71 -69 -35 40 c-62 71 -147 204 -137 214 10 10 215 119 225 120 3
0 12 -15 21 -33z m1148 -38 c-7 -11 -14 -18 -17 -15 -3 3 0 12 7 21 18 21 23
19 10 -6z m-1406 -105 c16 -35 77 -123 131 -190 l26 -31 -100 -87 c-55 -47
-104 -86 -109 -86 -12 0 -94 100 -174 213 l-58 80 93 47 c50 26 108 57 127 68
19 12 38 22 41 22 3 0 13 -16 23 -36z m265 -312 c19 -17 72 -51 118 -77 46
-26 85 -50 87 -53 2 -4 -10 -50 -26 -102 -16 -52 -31 -100 -33 -106 -5 -18
-104 3 -146 31 -20 13 -69 40 -109 60 -41 21 -99 62 -132 92 l-58 56 43 27
c23 15 71 55 107 88 l64 62 26 -23 c14 -13 40 -38 59 -55z m-1656 0 c33 -35
35 -79 5 -117 -18 -23 -26 -26 -56 -22 -43 8 -61 31 -62 81 0 46 30 86 65 86
12 0 33 -13 48 -28z m2264 -47 c-3 -30 -4 -55 -2 -55 2 0 9 26 16 58 7 31 14
48 16 37 11 -63 13 -65 44 -65 l30 0 -57 -70 c-31 -38 -57 -70 -58 -70 0 0 -2
12 -4 28 -3 39 9 192 15 192 3 0 3 -25 0 -55z m873 -145 c85 -16 120 -18 142
-11 l30 11 -31 -36 c-17 -19 -31 -44 -31 -54 0 -11 -4 -20 -8 -20 -5 0 -9 -8
-10 -17 -1 -10 -1 -584 -1 -1276 0 -1234 0 -1258 -19 -1248 -21 11 -111 26
-218 36 l-71 7 -8 1305 c-6 1098 -5 1307 6 1314 23 14 99 10 219 -11z m-270
-955 c0 -735 -3 -925 -13 -925 -6 0 -45 16 -85 35 l-72 35 0 528 c0 290 4 544
9 565 11 46 3 51 -90 66 -35 6 -100 16 -144 23 -128 20 -172 17 -237 -15 l-58
-28 0 -563 c0 -309 -3 -565 -6 -569 -3 -3 -24 1 -46 9 -22 8 -56 14 -74 14
l-34 0 1 438 c0 240 4 460 9 487 4 28 7 51 6 53 -7 7 -319 64 -362 65 -44 1
-60 -5 -112 -38 l-61 -40 6 -445 c3 -245 3 -465 -1 -490 -6 -41 -12 -48 -56
-75 -28 -16 -64 -42 -81 -57 l-30 -28 2 198 1 197 -63 17 c-35 9 -128 26 -207
38 l-142 21 -55 -38 -55 -38 0 -292 0 -291 -76 -41 c-41 -23 -76 -41 -77 -41
-1 0 0 23 2 51 2 40 -1 54 -17 69 -18 17 -19 30 -14 337 l4 318 87 90 c79 83
663 684 773 797 26 26 53 49 60 50 7 1 130 2 273 3 303 0 289 -4 420 115 86
78 132 105 240 140 86 28 231 96 305 143 30 20 58 36 63 36 4 1 7 -415 7 -924z
m-2503 565 c130 -23 156 -33 149 -58 -3 -9 -8 -29 -12 -44 -3 -16 -10 -25 -15
-22 -5 3 -9 -6 -9 -20 0 -13 -8 -32 -17 -42 -13 -13 -14 -19 -5 -22 7 -2 12
-21 12 -43 0 -37 -2 -39 -30 -39 -17 0 -30 5 -31 13 -1 6 -4 1 -8 -13 -4 -14
-16 -26 -26 -28 -11 -2 -33 -18 -50 -35 l-29 -32 -7 -250 c-4 -137 -8 -265 -8
-282 -1 -36 -26 -46 -35 -15 -5 18 -3 952 2 952 2 0 56 -9 119 -20z m1968
-330 c12 -11 28 -20 36 -20 8 0 48 -9 89 -19 45 -12 79 -16 86 -10 6 5 14 6
17 2 4 -3 17 2 29 13 l23 19 -20 -25 c-11 -13 -28 -33 -37 -44 -16 -18 -18
-46 -18 -281 0 -319 -11 -660 -20 -645 -4 7 -10 -7 -14 -30 -3 -22 -10 -39
-15 -36 -4 3 -23 -6 -41 -19 -19 -14 -41 -25 -51 -25 -9 0 -28 -9 -42 -20 -14
-11 -31 -20 -39 -20 -8 0 -14 -14 -16 -36 -1 -19 -7 -44 -12 -54 -6 -11 -10
-123 -10 -272 0 -220 -7 -296 -23 -278 -3 3 -10 309 -16 680 -19 1150 -19
1139 -7 1144 22 10 79 -4 101 -24z m-2453 -53 c26 -11 39 -12 47 -4 6 6 13 8
16 5 8 -8 8 -614 1 -627 -4 -6 -13 -8 -20 -5 -8 3 -16 -3 -18 -14 -4 -16 -18
-20 -79 -25 -41 -3 -103 -9 -139 -13 l-65 -6 3 357 3 358 108 -6 c59 -3 124
-12 143 -20z m1847 -92 c58 -9 117 -18 131 -21 23 -5 24 -7 7 -18 -15 -12 -17
-38 -20 -264 l-2 -251 -35 -30 c-19 -17 -40 -30 -45 -31 -16 0 -91 -80 -76
-80 11 0 11 -3 0 -16 -12 -14 -14 -14 -20 3 -5 16 -7 16 -13 -5 -4 -12 -12
-20 -17 -17 -5 4 -9 -4 -10 -17 0 -21 -1 -21 -8 -4 -20 52 -26 -38 -29 -444
-2 -239 -7 -439 -12 -443 -7 -8 -13 280 -25 1216 l-5 437 36 0 c20 0 84 -7
143 -15z m-822 -676 c15 -6 78 -20 138 -31 61 -11 114 -24 120 -29 5 -5 17 -9
28 -9 18 0 17 -1 -2 -26 -20 -25 -21 -39 -21 -284 0 -269 -9 -354 -41 -389
-11 -11 -19 -27 -19 -36 0 -11 -12 -15 -50 -15 -40 0 -56 -5 -78 -25 -29 -27
-42 -31 -42 -14 0 5 -4 7 -10 4 -5 -3 -10 -28 -10 -56 0 -41 -3 -49 -18 -49
-18 0 -19 17 -25 257 -8 290 -9 713 -3 713 3 0 17 -5 33 -11z m-627 -218 c0
-178 -4 -216 -21 -205 -10 6 -12 267 -3 338 14 97 24 39 24 -133z m-80 -39 c0
-197 -1 -208 -21 -225 -19 -17 -20 -26 -16 -258 l3 -240 -65 -48 c-36 -27 -77
-54 -90 -61 l-24 -12 5 506 c2 278 7 508 11 512 8 8 127 31 170 33 l27 1 0
-208z m1304 -209 c3 -87 6 -238 7 -336 l1 -178 -97 -50 c-53 -28 -99 -48 -102
-45 -4 3 -1 50 5 103 7 54 15 199 19 323 l8 224 69 58 c38 32 72 58 76 58 4 0
10 -71 14 -157z m2660 111 c57 -22 65 -29 70 -57 3 -18 6 -215 7 -440 1 -321
-2 -411 -12 -423 -7 -9 -65 -50 -128 -92 -130 -85 -394 -281 -516 -382 -44
-36 -186 -145 -315 -242 -129 -96 -299 -224 -377 -284 -78 -60 -209 -158 -292
-219 l-150 -110 -1 -42 c0 -29 -7 -49 -22 -67 -24 -26 -101 -56 -143 -56 -44
0 -106 32 -126 64 l-19 31 0 -63 c0 -34 3 -61 8 -60 4 1 49 -2 100 -6 89 -7
96 -6 145 18 84 42 96 56 103 122 5 41 13 65 28 78 42 37 222 174 262 199 23
14 77 55 120 92 44 36 135 106 204 156 69 49 155 113 192 142 36 29 101 79
144 112 43 33 103 81 133 107 59 50 79 60 62 31 -7 -13 -5 -23 5 -35 9 -9 18
-38 22 -64 l7 -48 63 -11 c34 -7 64 -10 66 -7 3 2 30 5 60 5 40 2 55 -1 52
-10 -3 -6 0 -14 7 -16 9 -3 8 -9 -3 -22 -18 -23 69 37 115 80 l33 30 5 132 c3
72 1 163 -4 202 -4 39 -6 77 -4 83 3 7 29 29 57 48 29 19 69 50 89 68 33 29
38 31 43 15 13 -46 46 -268 48 -327 3 -52 6 -66 21 -70 20 -5 23 -67 6 -129
-7 -28 -7 -48 1 -70 6 -18 13 -83 16 -146 l5 -113 -28 -30 c-15 -17 -69 -61
-120 -99 -50 -37 -94 -72 -98 -78 -3 -6 -11 -11 -16 -11 -6 0 -7 4 -4 10 3 6
-1 7 -10 3 -10 -3 -13 -8 -6 -12 6 -4 -4 -18 -24 -34 -36 -29 -51 -35 -39 -15
4 7 3 8 -5 4 -6 -4 -9 -11 -6 -15 8 -15 -31 -42 -51 -35 -15 5 -16 4 -4 -5 13
-9 12 -12 -5 -25 -11 -9 -26 -16 -32 -16 -7 0 -13 -4 -13 -8 0 -8 -115 -98
-805 -628 -55 -42 -152 -118 -215 -169 -63 -50 -171 -134 -240 -185 -69 -52
-141 -108 -161 -124 -20 -17 -67 -53 -105 -80 -38 -28 -113 -85 -166 -129 -59
-48 -102 -76 -109 -71 -7 4 -9 3 -6 -3 4 -6 -36 -42 -88 -81 -52 -39 -97 -67
-100 -62 -3 5 1 10 7 13 7 2 2 5 -12 5 -89 3 -147 16 -173 38 -37 31 -47 30
-47 -3 0 -28 0 -28 -25 9 -31 46 -31 48 0 48 17 0 24 5 23 17 -3 39 3 63 15
63 18 0 57 120 64 196 6 65 -11 99 -43 87 -13 -5 -15 3 -10 51 7 76 -3 97 -60
125 l-48 25 49 40 c27 23 65 59 85 80 76 85 139 145 230 218 52 41 115 95 140
118 43 41 43 40 -17 -7 -154 -120 -265 -214 -348 -293 -49 -47 -107 -98 -128
-114 l-38 -29 36 -29 c61 -51 41 -125 -46 -172 -85 -47 -183 -47 -239 0 -24
21 -30 34 -31 67 -1 41 -1 41 -10 12 -5 -16 -6 -52 -2 -80 8 -65 49 -109 111
-119 27 -4 42 -11 42 -21 0 -19 -122 -116 -325 -257 -88 -62 -187 -133 -220
-159 -33 -25 -93 -70 -133 -98 -81 -57 -79 -57 -172 -11 -60 31 -135 64 -177
81 l-28 11 24 9 c14 6 45 27 70 47 25 20 99 78 166 127 66 50 122 94 123 98 3
15 32 38 40 33 5 -3 8 5 7 17 -1 17 7 25 34 34 44 15 44 15 36 3 -3 -6 1 -7
10 -4 9 4 14 13 11 20 -3 8 0 11 10 7 8 -3 21 0 30 7 12 11 12 15 2 23 -9 6
-7 7 6 3 12 -4 32 3 55 21 57 43 117 103 104 103 -7 0 -13 -4 -13 -10 0 -5 -7
-10 -15 -10 -8 0 -15 -4 -15 -8 0 -13 -25 -10 -39 5 -10 11 -9 13 11 8 15 -4
30 1 45 14 11 11 23 18 26 15 2 -3 17 -2 31 2 26 6 26 7 9 27 l-18 21 29 -18
c24 -15 28 -16 23 -3 -3 9 1 18 9 21 10 4 13 2 8 -7 -5 -8 -2 -7 9 2 9 7 17
20 17 27 0 8 6 13 13 11 6 -1 11 4 10 11 -2 6 3 12 11 12 8 0 17 7 20 16 3 8
10 13 15 10 5 -3 11 7 14 23 3 15 25 48 49 72 44 45 140 121 168 131 8 3 23
20 33 37 18 30 18 31 -2 33 -12 0 -25 1 -30 2 -5 1 -28 -16 -50 -36 -23 -20
-76 -62 -119 -92 -42 -30 -108 -78 -147 -106 -142 -102 -135 -100 -199 -85
-31 7 -66 11 -78 7 -20 -5 -21 -3 -10 10 11 14 10 16 -7 11 -12 -3 -21 -10
-21 -15 0 -6 -8 -7 -17 -3 -10 4 -24 10 -32 13 -9 3 -12 1 -7 -6 4 -7 5 -12 2
-12 -3 0 -7 4 -11 9 -3 5 26 31 65 56 38 26 125 101 194 166 68 66 139 126
158 135 l33 15 -30 -6 c-25 -5 -266 -158 -299 -190 -6 -6 -36 -29 -66 -51 -30
-22 -116 -85 -190 -140 -153 -114 -328 -234 -340 -234 -5 0 -10 -3 -12 -8 -7
-18 -96 -81 -130 -93 -35 -12 -42 -11 -110 20 -71 32 -173 73 -213 86 -20 7
-20 7 -1 18 11 7 67 48 124 91 58 43 151 110 206 148 117 80 274 194 310 225
13 12 36 29 50 38 14 10 23 22 19 28 -3 5 -1 7 5 3 12 -7 55 30 65 56 4 12 12
15 23 11 13 -5 16 -3 11 10 -3 9 -3 17 2 17 4 0 18 9 31 20 13 11 18 20 12 20
-6 0 -14 -4 -17 -10 -10 -17 -22 -11 -20 10 1 12 27 47 58 78 31 32 57 63 57
70 0 18 -14 15 -27 -7 -7 -11 -41 -39 -75 -62 -35 -24 -115 -81 -178 -129 -63
-47 -132 -96 -153 -109 -21 -13 -43 -28 -50 -34 -21 -20 -81 -63 -106 -76 -19
-11 -25 -11 -33 0 -6 10 -8 7 -6 -11 3 -22 -1 -25 -24 -22 -14 1 -29 -2 -33
-8 -3 -5 -11 -10 -17 -10 -7 0 -7 4 0 13 9 10 -2 13 -51 15 -58 3 -81 14 -73
37 2 6 -8 11 -23 12 l-26 1 23 -18 c15 -13 18 -20 10 -23 -8 -3 -6 -6 5 -6 9
-1 17 -8 17 -16 0 -20 -6 -19 -30 5 -12 12 -15 20 -7 20 8 0 7 4 -3 10 -20 13
-33 13 -25 0 4 -6 -1 -7 -11 -3 -10 4 -15 2 -11 -3 3 -5 -3 -10 -14 -10 -19 0
-19 1 -2 13 10 7 29 21 42 30 13 10 31 18 40 18 9 1 15 6 14 12 -1 6 43 44 98
84 146 107 375 286 390 306 8 10 -5 3 -28 -16 -24 -18 -43 -30 -43 -26 0 3
-12 -6 -27 -20 -16 -14 -34 -23 -41 -20 -8 3 -16 -3 -19 -14 -3 -11 -11 -22
-18 -25 -8 -3 -42 -23 -77 -45 -35 -23 -67 -42 -73 -43 -5 -1 -19 -10 -30 -21
-11 -10 -56 -42 -100 -71 -110 -72 -108 -71 -303 -203 -95 -65 -188 -127 -205
-137 l-33 -19 -142 69 c-78 38 -142 73 -142 79 0 9 63 55 75 55 11 0 120 84
149 114 16 17 26 24 21 16 -7 -12 -4 -12 15 2 14 9 53 34 87 54 35 21 61 39
58 42 -2 3 -16 -3 -30 -12 -14 -9 -25 -13 -25 -9 0 10 42 38 53 35 4 -1 7 3 7
9 0 8 4 8 14 0 10 -9 16 -8 26 4 11 13 10 14 -6 8 -16 -6 -17 -5 -4 9 10 11
17 12 22 5 4 -7 23 2 51 24 25 19 54 40 65 48 12 8 19 18 16 23 -3 4 1 5 8 3
15 -6 112 64 103 73 -3 3 -14 -3 -24 -12 -11 -10 -25 -15 -31 -11 -7 4 -10 1
-8 -10 2 -13 -5 -18 -27 -20 -27 -3 -28 -2 -8 7 24 11 39 38 21 38 -7 0 -6 5
2 15 8 9 21 13 34 10 14 -4 17 -3 8 3 -17 12 31 57 50 46 7 -4 10 -4 6 1 -4 4
22 36 58 72 35 35 64 70 64 78 0 7 -24 21 -55 30 -30 10 -63 24 -72 32 -16 13
-16 13 4 4 41 -20 38 -11 -4 13 -72 41 -96 38 -202 -29 -161 -103 -934 -618
-984 -657 l-48 -37 -77 34 c-42 18 -103 45 -134 60 l-57 26 92 63 c51 34 148
100 217 147 69 47 150 103 180 125 30 22 101 73 157 113 99 70 142 108 92 80
-13 -7 -28 -12 -32 -11 -5 1 -5 -2 -2 -8 4 -7 -2 -14 -14 -17 -12 -3 -21 -10
-21 -15 0 -5 -9 -7 -20 -3 -11 3 -28 1 -37 -5 -14 -8 -12 -9 12 -4 36 8 32 3
-20 -26 -22 -12 -34 -16 -28 -9 7 7 13 21 13 30 0 10 6 20 13 22 6 3 1 5 -13
4 -83 -3 -130 4 -130 18 0 11 -12 15 -49 15 -39 0 -56 6 -78 25 -24 21 -25 24
-9 25 15 0 16 3 6 15 -16 19 -30 19 -30 0 0 -22 -33 -18 -48 5 -7 11 -17 20
-22 20 -6 0 -10 -9 -10 -20 0 -17 -7 -20 -40 -20 -36 0 -40 3 -40 25 0 31 -10
31 -47 2 -20 -16 -40 -22 -73 -22 -26 1 -45 6 -45 12 0 6 -4 15 -9 20 -5 5 -6
3 -2 -4 4 -8 2 -13 -6 -13 -8 0 -20 6 -28 13 -12 10 -12 9 -1 -5 7 -10 10 -19
5 -19 -33 -4 -94 -29 -94 -38 0 -3 -12 -12 -28 -19 -39 -18 -132 -98 -124
-107 4 -5 2 -5 -5 -1 -7 4 -18 -5 -28 -21 l-16 -28 7 35 c14 77 44 108 270
278 89 66 218 163 286 214 157 117 264 195 503 364 105 74 224 159 265 189
183 131 235 168 246 172 8 3 8 -12 -2 -54 -8 -32 -14 -107 -14 -168 0 -60 -7
-141 -15 -180 -9 -38 -18 -83 -21 -99 -3 -16 -9 -38 -13 -50 -6 -14 -3 -25 8
-33 14 -11 14 -12 1 -13 -13 0 -13 -1 0 -10 13 -8 13 -10 1 -10 -11 0 -9 -4 4
-14 18 -13 26 -9 85 37 36 28 79 65 96 82 16 16 33 31 37 32 4 1 15 7 25 12
14 9 12 10 -12 11 -20 0 -38 -11 -62 -37 -19 -20 -36 -34 -39 -31 -3 3 6 16
19 29 13 13 29 44 36 69 6 25 31 104 55 175 24 72 55 175 70 230 15 55 39 141
54 190 l27 90 79 58 c44 32 102 73 130 92 l49 35 18 -76 c10 -41 25 -85 33
-97 8 -12 15 -29 15 -39 0 -10 5 -18 10 -18 15 0 12 -30 -6 -47 -12 -12 -14
-28 -10 -67 4 -36 3 -44 -3 -26 -7 19 -9 9 -8 -37 2 -48 6 -63 17 -64 10 0 11
-2 3 -6 -7 -2 -13 -9 -13 -14 0 -5 11 -4 25 3 13 6 22 15 19 19 -3 5 1 7 8 4
7 -3 22 7 33 22 11 14 45 42 75 61 30 20 76 53 102 75 40 33 46 44 46 75 0 21
9 71 20 112 10 41 22 125 26 185 14 221 10 210 80 259 33 24 71 48 82 54 l21
11 -2 -227 c-2 -126 0 -216 5 -202 5 15 8 18 9 9 1 -9 8 -20 17 -23 15 -6 15
-8 -1 -26 -24 -27 -16 -25 25 5 55 40 59 28 7 -19 -42 -38 -45 -43 -23 -39 14
3 23 9 20 14 -3 5 2 9 10 9 9 0 16 -4 16 -10 0 -5 7 -10 16 -10 8 0 12 5 9 10
-3 6 -2 10 4 10 14 0 32 -35 23 -44 -3 -4 2 -4 12 0 14 5 15 9 4 15 -15 10 -7
12 16 3 9 -3 13 -11 10 -16 -4 -6 4 -4 17 3 13 7 32 13 42 14 22 2 1 -16 -123
-107 -47 -34 -87 -65 -90 -68 -8 -9 -151 -114 -233 -171 -43 -30 -97 -68 -120
-86 -23 -18 -43 -30 -46 -27 -3 2 5 11 17 20 13 9 19 21 16 27 -4 7 -4 9 1 5
4 -4 15 -3 25 2 21 11 54 105 45 128 -3 8 -2 18 2 21 4 3 15 20 24 37 16 30
16 31 -1 27 -10 -3 -59 -37 -108 -76 -50 -40 -125 -99 -168 -132 -42 -33 -84
-66 -93 -73 -9 -7 9 -1 39 14 48 23 53 24 37 6 -12 -13 -15 -22 -8 -27 6 -3
11 -1 11 4 0 6 5 11 10 11 6 0 10 -12 10 -27 0 -21 3 -24 9 -13 6 8 7 19 4 25
-4 5 -2 6 3 2 5 -5 9 -16 9 -24 0 -9 7 -18 15 -20 12 -4 12 -3 1 5 -9 7 -10
12 -2 16 6 4 9 12 6 17 -4 5 2 6 11 2 11 -4 13 -8 6 -11 -7 -2 -12 -8 -12 -13
0 -6 8 -5 20 1 11 6 18 15 15 21 -4 5 -4 9 -1 9 3 0 7 -4 11 -9 3 -5 -32 -39
-79 -75 -46 -36 -91 -77 -101 -92 -15 -24 -15 -27 0 -44 9 -9 18 -34 22 -54
11 -68 -48 -116 -144 -116 -81 0 -133 46 -133 118 0 19 -3 23 -11 15 -15 -15
-5 -69 21 -111 42 -69 168 -82 251 -27 55 36 64 65 39 122 -11 25 -20 49 -20
54 0 10 176 149 270 212 41 28 98 69 125 92 75 63 174 127 185 120 6 -4 9 -1
8 7 -2 7 4 13 12 13 8 0 14 -6 12 -13 -1 -8 2 -11 8 -7 8 5 8 11 -1 21 -9 11
-6 16 17 24 19 8 30 8 38 0 8 -8 6 -9 -7 -4 -17 6 -18 2 -15 -45 3 -28 1 -51
-3 -51 -9 0 -30 26 -24 31 2 3 -5 5 -15 5 -17 0 -16 -3 8 -23 15 -13 35 -21
45 -19 15 4 16 2 6 -10 -7 -8 -17 -13 -24 -10 -6 2 -12 -2 -12 -10 0 -12 4
-12 21 -1 12 7 39 24 61 37 63 38 236 171 277 213 21 20 40 48 42 60 3 12 10
48 16 80 13 64 10 61 148 148 72 45 76 47 80 37 9 -19 31 -132 43 -215 12 -88
20 -106 34 -83 3 5 16 15 28 21 12 6 0 -12 -29 -42 -48 -52 -50 -56 -48 -107
1 -30 7 -66 12 -80 6 -15 11 -34 11 -42 1 -8 4 -53 7 -99 l7 -83 51 6 c28 3
96 11 151 17 96 10 135 25 135 53 0 6 7 25 16 41 8 17 19 64 24 105 11 98 38
263 46 284 3 9 2 16 -4 16 -7 0 -7 13 0 38 5 20 12 218 15 440 6 457 -3 419
97 382 38 -15 56 -27 60 -43 3 -12 6 -151 6 -309 0 -180 4 -297 11 -315 6 -15
16 -81 23 -146 11 -96 18 -124 40 -157 14 -22 26 -43 26 -47 0 -15 37 -31 86
-38 36 -5 45 -4 34 4 -13 10 -13 12 0 21 8 5 20 10 25 10 6 0 3 -5 -5 -10 -13
-9 -13 -11 0 -20 8 -6 23 -8 33 -6 9 2 17 2 17 0 0 -2 -31 -27 -69 -56 -125
-97 -190 -153 -190 -165 -1 -7 1 -13 4 -13 12 0 93 56 149 104 50 43 221 166
262 189 6 3 11 0 11 -8 0 -8 -3 -12 -7 -10 -4 3 -20 -7 -36 -20 -16 -14 -33
-25 -39 -25 -5 0 -3 -4 5 -10 19 -12 10 -20 -25 -24 -31 -3 -43 -20 -41 -56 1
-19 8 -26 33 -31 18 -3 30 -2 27 2 -3 5 -11 9 -18 9 -17 0 -29 41 -16 54 7 7
10 2 10 -12 0 -29 26 -29 70 1 19 13 41 23 48 21 7 -1 8 0 2 3 -5 2 -10 14
-10 26 0 18 2 19 10 7 13 -21 18 -12 22 48 4 42 2 52 -10 47 -7 -3 3 14 23 38
27 31 32 43 21 45 -24 5 -29 105 -17 347 6 121 11 288 11 370 0 83 4 156 8
162 6 10 24 7 76 -11 37 -13 72 -28 76 -33 5 -4 10 -167 11 -361 1 -199 5
-348 10 -340 6 8 9 0 9 -25 0 -21 6 -68 14 -105 24 -110 26 -140 11 -152 -14
-12 -9 -50 7 -50 5 0 6 -5 3 -10 -3 -6 -4 -18 -1 -28 8 -24 51 -21 106 6 25
12 36 17 26 10 -28 -19 -115 -86 -192 -148 -142 -115 -744 -547 -976 -702 -82
-54 -148 -100 -148 -103 0 -15 244 132 316 190 22 18 85 65 140 102 54 38 180
126 279 195 99 68 234 164 300 212 149 109 173 123 181 101 7 -17 -4 -133 -13
-149 -4 -6 10 2 31 18 20 15 39 26 41 24 2 -2 -13 -22 -34 -45 -28 -30 -36
-44 -28 -52 8 -8 7 -11 -3 -11 -11 0 -11 -3 -2 -12 7 -7 12 -29 12 -50 0 -23
5 -38 13 -39 8 0 8 -2 1 -5 -7 -3 -10 -14 -7 -25 5 -18 8 -18 62 12 64 35 50
19 -53 -60 -66 -50 -69 -65 -5 -25 37 23 45 25 63 14 19 -12 20 -12 7 3 -7 10
-9 17 -3 17 5 0 15 -7 22 -15 7 -8 9 -15 5 -15 -4 0 -2 -7 5 -15 15 -18 3 -38
-19 -30 -12 5 -13 3 -4 -6 9 -9 21 -4 52 20 37 29 56 51 32 36 -5 -3 -12 -1
-16 4 -3 6 4 8 15 6 14 -3 32 6 50 25 16 17 33 30 38 30 20 0 31 23 19 41 -9
14 -7 22 7 38 10 11 22 19 26 16 4 -2 7 2 7 9 0 8 13 40 30 72 33 63 36 81 49
344 4 78 11 133 20 147 8 12 35 34 61 49 27 15 64 40 84 56 20 15 39 28 42 28
8 0 38 -249 41 -347 1 -18 7 -38 14 -45 16 -16 16 -80 0 -98 -11 -11 -9 -11 9
1 69 44 214 152 324 239 l126 100 6 242 c4 133 7 355 7 495 0 139 2 253 5 253
3 0 34 -12 69 -26z m-680 -114 l76 -35 0 -322 0 -322 -77 -50 c-93 -62 -118
-66 -109 -18 4 17 10 202 13 410 3 208 9 377 13 375 4 -2 42 -19 84 -38z
m-3133 -71 c89 -18 112 -20 171 -10 37 6 74 11 82 11 28 0 17 -28 -19 -50 -55
-34 -65 -55 -65 -140 0 -41 -3 -104 -6 -140 l-6 -65 -97 -2 c-53 -1 -116 -6
-141 -12 -24 -5 -47 -8 -49 -5 -7 7 -20 417 -14 427 7 11 32 9 144 -14z m4438
-44 c23 -8 56 -20 74 -28 41 -18 100 -42 317 -132 388 -160 462 -217 462 -356
0 -84 -24 -112 -233 -269 -68 -52 -176 -135 -240 -185 -200 -155 -321 -246
-334 -251 -11 -5 -52 111 -76 221 -11 48 -26 1015 -16 1015 2 0 23 -7 46 -15z
m1018 -476 c18 -62 27 -150 19 -182 -13 -53 -85 -145 -151 -193 -37 -27 -104
-78 -149 -114 -46 -36 -120 -92 -166 -125 -46 -33 -118 -91 -160 -130 -95 -87
-360 -286 -545 -409 -44 -30 -100 -72 -125 -93 -50 -44 -144 -117 -565 -438
-158 -121 -320 -246 -359 -277 -39 -32 -120 -96 -181 -143 -142 -109 -199
-154 -382 -300 -83 -66 -226 -178 -319 -250 -92 -71 -218 -170 -280 -220 -62
-49 -168 -134 -236 -187 -68 -53 -154 -122 -193 -153 -409 -324 -557 -395
-828 -395 -134 0 -246 21 -377 72 -93 36 -533 255 -1340 665 -564 287 -1110
561 -1200 602 -311 141 -442 264 -444 421 0 31 7 77 18 105 18 47 116 208 123
201 2 -1 -19 -40 -47 -86 -27 -45 -52 -98 -56 -117 -11 -58 3 -139 33 -195 65
-119 45 -108 1007 -588 485 -242 1106 -554 1381 -694 275 -139 537 -267 582
-285 128 -48 247 -65 363 -51 272 33 422 112 765 400 50 42 137 111 195 155
58 43 132 101 165 130 33 28 105 84 160 125 99 73 251 193 615 480 326 258
462 364 580 453 63 48 174 132 245 187 72 55 202 155 290 222 88 67 221 169
295 227 74 58 169 130 211 161 146 106 365 271 469 354 58 46 132 101 166 124
54 36 210 156 315 241 40 32 94 127 104 183 4 20 2 51 -3 70 -6 18 -15 52 -20
76 -13 60 5 39 25 -29z m-5278 -233 c-2 -2 -15 -7 -29 -10 l-25 -7 25 15 c21
12 42 14 29 2z m5176 -7 c-17 -17 -67 -57 -291 -227 -24 -19 -44 -32 -44 -30
0 3 64 54 141 114 78 60 156 121 173 136 37 33 46 36 21 7z m-4765 -103 c0 -2
-8 -10 -17 -17 -16 -13 -17 -12 -4 4 13 16 21 21 21 13z m2049 -65 c9 -6 10
-11 2 -15 -6 -4 -11 -2 -11 4 0 7 -7 9 -16 6 -8 -3 -12 -2 -9 4 8 12 16 12 34
1z m2341 -115 c0 -2 -8 -10 -17 -17 -16 -13 -17 -12 -4 4 13 16 21 21 21 13z
m-40 -30 c0 -2 -8 -10 -17 -17 -16 -13 -17 -12 -4 4 13 16 21 21 21 13z m-40
-30 c0 -2 -8 -10 -17 -17 -16 -13 -17 -12 -4 4 13 16 21 21 21 13z m-61 -52
c-7 -8 -110 -87 -228 -174 -119 -87 -263 -195 -321 -239 -282 -218 -500 -381
-500 -374 0 4 80 68 178 141 97 73 227 171 287 218 61 47 164 125 230 174 66
49 174 130 240 179 66 49 122 90 124 90 2 1 -2 -6 -10 -15z m-1519 -70 c0 -8
-19 -13 -24 -6 -3 5 1 9 9 9 8 0 15 -2 15 -3z m1619 -121 c22 -18 21 -18 -56
-70 -43 -29 -157 -120 -253 -202 -174 -150 -175 -150 -195 -131 -19 20 -19 20
15 56 105 109 417 364 446 364 12 0 31 -8 43 -17z m-2049 -57 c0 -2 -7 -7 -16
-10 -8 -3 -12 -2 -9 4 6 10 25 14 25 6z m-143 -86 c15 -22 -2 -39 -20 -21 -8
8 -7 11 2 11 11 0 11 3 1 15 -7 8 -8 15 -4 15 5 0 15 -9 21 -20z m1028 -469
c-30 -27 -296 -231 -290 -222 7 13 286 231 294 231 3 0 1 -4 -4 -9z m-5145
-201 c-7 -4 -16 -13 -20 -20 -4 -6 -7 1 -6 18 1 26 3 29 20 20 14 -8 15 -12 6
-18z m4820 -54 c-8 -7 -80 -61 -160 -120 -80 -58 -127 -90 -105 -70 40 36 266
203 275 204 2 0 -2 -6 -10 -14z m-4895 -6 c-3 -5 -12 -10 -18 -10 -7 0 -6 4 3
10 19 12 23 12 15 0z m-1008 -132 c-3 -7 -5 -2 -5 12 0 14 2 19 5 13 2 -7 2
-19 0 -25z m5589 -96 c-2 -4 -50 -44 -107 -87 -56 -44 -129 -103 -163 -131
-54 -45 -268 -212 -368 -288 -21 -16 -38 -26 -38 -24 0 3 69 58 153 123 83 65
172 135 196 154 100 82 326 261 329 261 2 0 1 -4 -2 -8z m-2806 -46 c0 -2 -8
-10 -17 -17 -16 -13 -17 -12 -4 4 13 16 21 21 21 13z m-2600 -83 c0 -7 -58 36
-66 49 -4 7 9 -1 29 -16 20 -16 37 -30 37 -33z m1120 -318 c56 -25 129 -59
162 -76 l61 -31 -29 -14 c-16 -9 -36 -22 -45 -30 -8 -8 -23 -14 -32 -14 -20 0
-317 147 -317 157 0 18 46 53 70 53 15 0 73 -20 130 -45z m1800 -45 c0 -5 -4
-10 -10 -10 -5 0 -10 5 -10 10 0 6 5 10 10 10 6 0 10 -4 10 -10z m1790 -54 c0
-3 -15 -14 -32 -26 l-33 -22 30 26 c31 27 35 29 35 22z m-1670 -26 c0 -5 -2
-10 -4 -10 -3 0 -8 5 -11 10 -3 6 -1 10 4 10 6 0 11 -4 11 -10z m1570 -51
c-19 -16 -60 -49 -90 -72 -48 -37 -388 -306 -518 -409 -68 -55 -132 -100 -132
-94 0 3 37 33 83 68 45 34 123 96 173 138 50 41 153 122 229 180 76 58 170
131 209 162 75 60 105 78 46 27z m-1675 -29 c3 -5 1 -10 -4 -10 -6 0 -11 5
-11 10 0 6 2 10 4 10 3 0 8 -4 11 -10z m-20 -20 c3 -5 1 -10 -4 -10 -6 0 -11
5 -11 10 0 6 2 10 4 10 3 0 8 -4 11 -10z m-1074 -126 c57 -25 121 -54 141 -63
l38 -17 -45 -37 c-24 -20 -51 -37 -59 -37 -8 0 -85 35 -170 77 l-156 77 47 28
c58 35 69 33 204 -28z m-451 -30 c0 -2 -9 0 -20 6 -11 6 -20 13 -20 16 0 2 9
0 20 -6 11 -6 20 -13 20 -16z m1260 -49 c-7 -8 -16 -15 -21 -15 -5 0 -6 7 -3
15 4 8 13 15 21 15 13 0 13 -3 3 -15z m-1095 -25 c3 -6 -1 -7 -9 -4 -18 7 -21
14 -7 14 6 0 13 -4 16 -10z m1952 -115 c-4 -8 -14 -14 -24 -14 -17 1 -17 2 0
6 9 2 17 12 17 20 0 9 3 14 6 10 4 -3 4 -13 1 -22z m303 -55 c0 -7 -27 -32
-46 -43 -7 -4 -10 7 -8 31 1 20 2 38 3 39 2 5 51 -21 51 -27z m40 -144 c0 -2
-8 -10 -17 -17 -16 -13 -17 -12 -4 4 13 16 21 21 21 13z m-2816 -17 c-3 -6 0
-15 7 -20 9 -6 10 -9 2 -9 -6 0 -15 5 -18 10 -4 6 -12 8 -18 4 -7 -3 -3 2 7
10 23 19 30 20 20 5z m2776 -13 c0 -2 -26 -25 -57 -51 l-58 -47 55 51 c54 50
60 55 60 47z m-120 -100 c0 -2 -8 -10 -17 -17 -16 -13 -17 -12 -4 4 13 16 21
21 21 13z m-200 -131 c0 -7 -77 -45 -92 -45 -7 0 10 11 37 24 59 29 55 27 55
21z m-655 -55 c13 -6 15 -9 5 -9 -8 0 -22 4 -30 9 -18 12 -2 12 25 0z m135
-30 c42 -9 41 -9 -14 -4 -33 3 -69 10 -80 15 -23 10 14 5 94 -11z m353 13 c-7
-2 -19 -2 -25 0 -7 3 -2 5 12 5 14 0 19 -2 13 -5z m-50 -10 c-7 -2 -19 -2 -25
0 -7 3 -2 5 12 5 14 0 19 -2 13 -5z m-160 -20 c-18 -2 -48 -2 -65 0 -18 2 -4
4 32 4 36 0 50 -2 33 -4z"/>
<path d="M3341 8654 c-15 -19 -21 -41 -21 -79 0 -65 20 -86 87 -92 71 -7 84 7
84 91 0 87 -14 106 -82 106 -39 0 -51 -4 -68 -26z m53 -96 c9 -21 6 -21 -28
-8 -14 5 -26 17 -26 26 0 10 5 14 15 10 13 -5 15 0 9 29 -3 18 -2 40 3 47 5 8
10 -4 14 -37 3 -27 9 -58 13 -67z m46 92 c20 -11 38 -89 25 -110 -11 -18 -25
8 -25 46 0 19 -6 34 -15 38 -8 3 -15 12 -15 21 0 18 5 19 30 5z m-10 -140 c11
-7 7 -10 -17 -10 -18 0 -33 5 -33 10 0 13 30 13 50 0z"/>
<path d="M5653 7803 c-20 -7 -15 -41 7 -48 25 -8 40 1 40 24 0 19 -25 31 -47
24z"/>
<path d="M3381 6974 c0 -11 3 -14 6 -6 3 7 2 16 -1 19 -3 4 -6 -2 -5 -13z"/>
<path d="M3413 6955 c-6 -14 -7 -25 -2 -25 11 0 22 25 17 39 -1 6 -8 -1 -15
-14z"/>
<path d="M4664 3922 c-22 -20 -75 -63 -117 -96 -42 -32 -74 -63 -70 -69 3 -6
1 -7 -5 -3 -11 7 -116 -64 -107 -72 3 -3 23 7 46 22 22 15 43 25 46 22 4 -3
12 -1 19 5 19 15 84 -10 85 -33 1 -10 3 -22 4 -28 1 -5 3 -15 4 -21 0 -5 6 -7
12 -3 8 4 7 9 -2 14 -8 6 0 11 24 15 37 7 42 16 40 72 -1 7 3 10 8 7 5 -3 9 6
9 21 0 14 4 33 10 43 11 21 42 133 38 137 -2 2 -21 -13 -44 -33z"/>
<path d="M5850 3865 c-20 -24 -6 -28 15 -5 10 11 13 20 8 20 -6 0 -16 -7 -23
-15z"/>
<path d="M5805 3830 c4 -6 11 -8 16 -5 14 9 11 15 -7 15 -8 0 -12 -5 -9 -10z"/>
<path d="M5780 3805 c-11 -13 -10 -14 4 -9 9 3 16 10 16 15 0 13 -6 11 -20 -6z"/>
<path d="M6080 3813 c0 -5 13 -8 29 -8 16 0 27 3 24 8 -2 4 -15 7 -29 7 -13 0
-24 -3 -24 -7z"/>
<path d="M5884 3788 l-19 -23 23 19 c12 11 22 21 22 23 0 8 -8 2 -26 -19z"/>
<path d="M5905 3781 c-3 -5 -2 -12 3 -15 5 -3 9 1 9 9 0 17 -3 19 -12 6z"/>
<path d="M6147 3775 c-23 -12 -128 -95 -147 -116 -3 -3 -15 -12 -28 -21 -13
-9 -48 -39 -78 -67 -56 -52 -54 -66 4 -31 43 26 82 26 89 0 3 -11 9 -20 14
-20 4 0 6 -9 4 -20 -2 -12 0 -18 6 -15 5 4 7 10 4 15 -3 4 2 11 11 14 8 3 12
2 9 -4 -4 -6 3 -6 17 1 13 6 30 20 37 31 7 11 8 17 2 13 -6 -3 -11 1 -11 9 0
8 7 16 16 18 12 2 18 16 21 43 2 22 6 49 8 60 2 11 4 28 4 38 1 10 13 29 27
42 31 29 30 30 -9 10z"/>
<path d="M4279 3623 c-13 -16 -12 -17 4 -4 16 13 21 21 13 21 -2 0 -10 -8 -17
-17z"/>
<path d="M5335 3581 c-3 -6 -27 -13 -53 -16 -77 -10 -80 -14 -42 -38 43 -27
71 -32 64 -12 -4 11 1 15 17 15 12 0 19 3 16 7 -4 3 -2 12 4 20 6 7 8 13 3 13
-5 0 -2 5 6 10 9 6 10 10 3 10 -6 0 -14 -4 -18 -9z m-62 -48 c-7 -2 -19 -2
-25 0 -7 3 -2 5 12 5 14 0 19 -2 13 -5z"/>
<path d="M3555 3536 c-28 -19 -66 -51 -85 -72 -26 -28 -15 -21 45 26 94 74
100 80 94 80 -2 0 -27 -15 -54 -34z"/>
<path d="M5345 3444 c-22 -19 -24 -23 -7 -15 12 7 22 8 22 4 0 -14 -40 -34
-53 -27 -9 5 -9 4 -1 -5 9 -10 19 -8 48 11 38 24 48 41 19 32 -15 -5 -15 -3 1
10 11 9 16 16 10 16 -5 -1 -22 -12 -39 -26z"/>
<path d="M5276 3382 c-3 -5 1 -9 9 -9 8 0 12 4 9 9 -3 4 -7 8 -9 8 -2 0 -6 -4
-9 -8z"/>
<path d="M5225 3340 c-3 -5 1 -10 9 -10 8 0 18 5 21 10 3 6 -1 10 -9 10 -8 0
-18 -4 -21 -10z"/>
<path d="M3535 3320 c-3 -5 -1 -10 4 -10 6 0 11 5 11 10 0 6 -2 10 -4 10 -3 0
-8 -4 -11 -10z"/>
<path d="M3580 3312 c0 -7 -10 -13 -22 -13 -19 -1 -20 -2 -4 -6 20 -5 44 12
33 24 -4 3 -7 1 -7 -5z"/>
<path d="M3313 3282 c-17 -9 -81 -53 -141 -97 -107 -77 -110 -81 -105 -112 20
-124 -221 -158 -273 -39 l-13 31 -1 -28 c0 -33 20 -75 48 -100 15 -14 37 -19
85 -19 53 -1 72 3 111 26 25 15 46 24 46 20 0 -3 7 -1 15 6 8 7 15 17 15 23 0
6 -7 2 -15 -9 -9 -10 -4 3 10 31 15 29 22 51 15 53 -5 2 -10 10 -10 18 0 9 5
12 12 8 6 -4 8 -3 5 2 -8 13 0 23 58 69 28 21 52 42 55 46 3 3 34 24 69 47 65
42 73 56 14 24z"/>
<path d="M7493 3259 c-6 -6 -9 -19 -6 -28 5 -13 3 -13 -7 -4 -10 9 -23 2 -62
-35 -27 -25 -70 -61 -96 -79 -76 -53 -84 -61 -77 -72 9 -16 25 -14 25 3 0 8
23 29 51 47 29 18 60 42 70 52 10 12 26 18 37 15 15 -4 18 -1 15 21 -2 14 0
20 3 14 7 -16 24 -17 24 -3 0 6 12 22 28 35 19 17 24 27 17 34 -8 8 -14 8 -22
0z"/>
<path d="M4090 3215 c-19 -14 -31 -25 -26 -25 4 0 24 11 44 25 20 14 32 25 26
25 -5 0 -25 -11 -44 -25z"/>
<path d="M7488 3193 c7 -3 16 -2 19 1 4 3 -2 6 -13 5 -11 0 -14 -3 -6 -6z"/>
<path d="M4005 3170 c-24 -27 -16 -33 13 -10 12 10 18 21 14 24 -5 3 -17 -3
-27 -14z"/>
<path d="M4538 3110 c-3 -51 -6 -56 -44 -83 -62 -44 -158 -48 -248 -11 -15 6
-17 4 -11 -6 4 -7 7 -32 7 -56 l-2 -43 45 -7 c34 -5 50 -3 63 9 10 9 40 15 76
16 101 3 156 53 156 144 0 29 -7 53 -19 68 l-20 24 -3 -55z"/>
<path d="M4912 3095 c-51 -37 -92 -68 -92 -71 0 -8 106 64 170 116 54 43 8 17
-78 -45z"/>
<path d="M7241 3144 c0 -11 3 -14 6 -6 3 7 2 16 -1 19 -3 4 -6 -2 -5 -13z"/>
<path d="M3922 3104 l-37 -36 40 28 c55 39 61 44 47 44 -7 0 -29 -16 -50 -36z"/>
<path d="M7290 3055 c-7 -9 -10 -18 -6 -22 3 -3 6 -1 6 6 0 8 8 10 23 7 12 -3
16 -3 9 0 -6 3 -10 10 -6 15 9 15 -13 10 -26 -6z"/>
<path d="M7296 3014 c-23 -23 -20 -30 4 -9 11 10 20 20 20 22 0 7 -9 2 -24
-13z"/>
<path d="M7478 2943 c7 -3 16 -2 19 1 4 3 -2 6 -13 5 -11 0 -14 -3 -6 -6z"/>
<path d="M3010 2920 c-8 -5 -10 -10 -5 -10 6 0 17 5 25 10 8 5 11 10 5 10 -5
0 -17 -5 -25 -10z"/>
<path d="M3008 2899 c-35 -13 -45 -39 -15 -39 12 -1 40 -3 62 -6 l40 -4 -34
15 c-18 8 -41 15 -50 16 -11 0 -9 3 7 9 12 5 22 12 22 15 0 3 -1 5 -2 4 -2 0
-15 -5 -30 -10z"/>
<path d="M7380 2866 c0 -2 7 -7 16 -10 8 -3 12 -2 9 4 -6 10 -25 14 -25 6z"/>
<path d="M5300 2389 c0 -5 5 -7 10 -4 6 3 10 8 10 11 0 2 -4 4 -10 4 -5 0 -10
-5 -10 -11z"/>
<path d="M5239 2343 c-13 -17 -13 -17 6 -3 11 8 22 16 24 17 2 2 0 3 -6 3 -6
0 -17 -8 -24 -17z"/>
<path d="M3607 1999 c7 -7 15 -10 18 -7 3 3 -2 9 -12 12 -14 6 -15 5 -6 -5z"/>
<path d="M4302 1871 c-11 -7 -11 -9 0 -14 9 -3 15 1 15 9 0 8 -1 14 -1 14 -1
0 -7 -4 -14 -9z"/>
<path d="M4502 1844 c-7 -8 -8 -14 -3 -14 10 0 25 19 20 25 -2 1 -10 -3 -17
-11z"/>
<path d="M5430 1328 c-19 -12 -38 -27 -42 -32 -4 -6 -11 -7 -15 -2 -4 4 1 14
11 22 11 8 15 14 9 14 -19 0 -37 -30 -25 -42 7 -7 21 -2 49 18 68 50 74 60 13
22z"/>
<path d="M5294 1235 c0 -20 3 -22 16 -12 8 6 17 12 18 13 2 1 -5 7 -15 12 -16
9 -19 7 -19 -13z"/>
<path d="M9621 10194 c0 -11 3 -14 6 -6 3 7 2 16 -1 19 -3 4 -6 -2 -5 -13z"/>
<path d="M914 10189 c-3 -6 -1 -16 5 -22 8 -8 11 -5 11 11 0 24 -5 28 -16 11z"/>
<path d="M6810 10179 c0 -11 5 -17 10 -14 6 3 10 13 10 21 0 8 -4 14 -10 14
-5 0 -10 -9 -10 -21z"/>
<path d="M8342 10165 c0 -16 2 -22 5 -12 2 9 2 23 0 30 -3 6 -5 -1 -5 -18z"/>
<path d="M8336 10111 c-4 -7 -5 -15 -2 -18 9 -9 19 4 14 18 -4 11 -6 11 -12 0z"/>
<path d="M2734 10036 c-38 -38 -45 -80 -19 -120 40 -61 132 -52 168 17 23 44
17 78 -18 113 -37 37 -88 33 -131 -10z m111 -12 c31 -33 32 -64 3 -91 -39 -35
-64 -37 -93 -9 -30 31 -32 64 -4 100 27 34 63 34 94 0z"/>
<path d="M2793 9983 c-13 -2 -23 -11 -23 -19 0 -18 14 -18 30 1 7 8 16 12 21
9 5 -3 9 0 9 5 0 6 -3 10 -7 10 -5 -1 -18 -4 -30 -6z"/>
<path d="M6800 10045 c0 -8 5 -15 10 -15 6 0 10 7 10 15 0 8 -4 15 -10 15 -5
0 -10 -7 -10 -15z"/>
<path d="M910 10019 c0 -5 5 -7 10 -4 6 3 10 8 10 11 0 2 -4 4 -10 4 -5 0 -10
-5 -10 -11z"/>
<path d="M9621 10014 c0 -11 3 -14 6 -6 3 7 2 16 -1 19 -3 4 -6 -2 -5 -13z"/>
<path d="M6805 9925 c10 -107 3 -130 -45 -144 -57 -17 -120 -107 -120 -171 0
-72 72 -160 130 -160 l30 0 0 -475 c0 -436 -1 -478 -17 -503 l-18 -27 25 16
c23 15 25 23 25 90 0 41 1 259 3 485 l2 412 25 6 c35 9 96 65 111 103 38 90
-20 212 -108 230 l-28 6 0 103 c0 70 -4 104 -11 104 -8 0 -9 -22 -4 -75z m52
-227 c32 -36 44 -65 37 -93 -8 -32 -68 -85 -96 -85 -30 0 -58 29 -57 59 0 23
1 24 9 6 5 -11 11 -29 15 -40 6 -18 9 -17 35 14 30 35 44 71 28 71 -5 0 -7 9
-3 19 4 14 0 21 -16 26 -27 9 -42 -6 -37 -36 2 -18 9 -23 26 -22 19 3 21 0 13
-16 -17 -31 -37 -31 -60 -1 -28 38 -27 58 6 92 33 34 72 36 100 6z"/>
<path d="M1980 9966 c0 -10 9 -16 21 -16 24 0 21 23 -4 28 -10 2 -17 -3 -17
-12z"/>
<path d="M6214 9961 c-99 -60 -99 -198 0 -245 29 -14 43 -15 75 -6 122 33 156
159 65 240 -41 36 -92 40 -140 11z m134 -46 c44 -47 45 -101 2 -143 -31 -31
-64 -42 -105 -34 -39 7 -85 58 -85 93 0 63 76 135 130 124 14 -3 40 -21 58
-40z"/>
<path d="M6266 9835 c-29 -27 -32 -35 -13 -35 7 0 26 14 42 30 36 37 11 42
-29 5z"/>
<path d="M910 9945 c0 -8 5 -15 10 -15 6 0 10 7 10 15 0 8 -4 15 -10 15 -5 0
-10 -7 -10 -15z"/>
<path d="M7536 9940 c-95 -30 -147 -170 -93 -251 32 -49 105 -83 159 -74 55
10 112 64 128 123 31 117 -83 236 -194 202z m121 -52 c41 -38 56 -76 50 -132
-4 -41 -11 -55 -40 -82 -48 -44 -100 -54 -147 -27 -76 45 -98 117 -58 193 42
80 137 103 195 48z"/>
<path d="M7544 9843 c-17 -12 -34 -49 -34 -75 0 -68 73 -90 114 -35 19 26 19
30 6 70 -13 36 -20 42 -45 45 -16 1 -35 -1 -41 -5z m60 -49 c7 -28 0 -64 -14
-64 -29 0 -40 15 -40 51 0 34 3 39 24 39 17 0 26 -7 30 -26z"/>
<path d="M5171 9816 c-1 -89 -4 -113 -18 -129 -17 -19 -17 -20 5 -8 48 25 93
-17 90 -85 -1 -31 7 -51 37 -94 51 -74 116 -141 128 -133 6 3 7 1 3 -5 -11
-18 23 -43 43 -32 16 8 12 15 -32 62 -63 67 -138 178 -163 242 -13 35 -27 52
-46 60 -27 10 -28 12 -29 96 -2 132 -17 154 -18 26z"/>
<path d="M4767 9894 c-4 -4 -7 -168 -7 -365 l0 -357 30 -4 c19 -3 31 0 35 10
7 18 4 547 -4 642 -5 65 -9 75 -26 78 -12 2 -24 0 -28 -4z"/>
<path d="M4636 9859 c-3 -17 -6 -182 -6 -365 l0 -334 35 0 35 0 -2 363 -3 362
-26 3 c-22 3 -27 -2 -33 -29z"/>
<path d="M2001 9811 c0 -33 3 -51 8 -45 5 5 5 29 1 54 l-7 45 -2 -54z"/>
<path d="M9620 9850 c0 -5 5 -10 11 -10 5 0 7 5 4 10 -3 6 -8 10 -11 10 -2 0
-4 -4 -4 -10z"/>
<path d="M8886 9824 c-3 -9 -6 -27 -6 -40 0 -21 -5 -24 -36 -24 -19 0 -44 -5
-55 -11 -18 -9 -20 -17 -14 -67 4 -31 13 -63 20 -71 21 -22 149 -27 180 -7 36
24 32 40 -9 32 -20 -4 -37 -2 -41 3 -4 7 -12 7 -24 -1 -34 -21 -110 14 -98 46
5 11 19 16 50 16 24 0 46 -3 50 -6 3 -4 34 -6 69 -6 58 0 63 1 66 22 5 30 -13
40 -69 40 l-47 0 -6 45 c-7 46 -19 58 -30 29z"/>
<path d="M917 9738 c8 -70 15 -76 12 -10 -2 29 -6 55 -10 58 -5 2 -5 -19 -2
-48z"/>
<path d="M9616 9753 c7 -52 14 -54 14 -5 0 23 -4 42 -9 42 -5 0 -7 -17 -5 -37z"/>
<path d="M2789 9737 c-4 -9 -6 -54 -2 -59 2 -4 12 -3 21 3 13 8 39 0 122 -42
143 -71 257 -119 283 -119 37 0 0 25 -88 60 -43 17 -84 35 -90 40 -11 9 -244
120 -246 117z"/>
<path d="M2006 9692 c-4 -8 -7 -80 -5 -160 l4 -147 -140 -5 -140 -6 138 -2
139 -2 -6 -77 c-7 -98 -8 -103 -17 -103 -4 0 -48 -32 -96 -71 -103 -83 -128
-98 -145 -81 -9 9 -8 12 4 12 9 0 27 15 40 33 14 17 57 65 97 106 39 40 71 78
71 85 -1 6 -20 -10 -43 -35 -59 -65 -184 -168 -214 -175 -13 -4 -30 -1 -36 5
-20 20 -27 12 -27 -32 0 -54 -9 -65 -31 -36 -18 24 -42 18 -32 -8 4 -11 3 -14
-5 -9 -7 4 -12 2 -12 -4 0 -11 -103 -117 -131 -135 -62 -40 -83 -55 -74 -55
15 -1 -27 -30 -42 -30 -11 0 -12 11 -7 49 4 31 2 51 -5 55 -8 5 -11 -10 -11
-48 0 -44 -4 -57 -19 -66 -11 -5 -84 -11 -163 -12 -118 -2 -126 -3 -45 -5 53
-2 97 -8 97 -12 0 -5 -8 -7 -18 -4 -17 4 -19 -1 -18 -42 1 -44 -2 -49 -46 -87
-66 -55 -64 -106 2 -61 14 9 64 47 111 85 48 37 90 68 93 68 3 0 7 -42 7 -92
l1 -93 12 97 c12 101 17 117 38 101 23 -17 62 -13 105 13 38 22 53 24 120 22
l78 -3 -3 -47 c-2 -30 0 -48 7 -48 6 0 11 21 11 50 l0 50 175 0 175 0 0 -109
c0 -63 4 -112 10 -116 6 -4 10 35 10 109 l0 116 103 1 c56 1 136 5 177 9 57 6
34 8 -100 7 l-175 -2 -3 153 -3 152 183 2 183 3 -177 2 -178 3 0 48 c0 46 1
47 43 64 23 10 53 28 67 40 96 87 101 90 119 74 24 -22 28 -20 24 12 -3 15 0
39 6 54 8 21 18 28 48 31 38 4 37 4 -7 5 -51 3 -79 15 -60 27 20 12 90 127 90
147 0 10 -3 18 -7 18 -15 0 -154 -160 -148 -169 7 -12 -110 -138 -146 -156
l-27 -14 -5 57 c-2 31 -3 60 0 65 2 4 34 7 71 7 47 0 63 3 52 10 -8 5 -41 10
-72 10 l-57 0 -3 158 c-2 93 -7 152 -12 144z m-2 -600 c-5 -17 -14 -22 -37
-22 l-31 0 29 30 c31 32 48 29 39 -8z m-4 -186 l0 -153 -61 -7 c-34 -3 -113
-6 -176 -6 l-114 0 3 77 3 77 60 11 c77 14 110 34 163 101 39 49 47 54 82 54
l40 0 0 -154z m-282 97 c2 -9 -7 -13 -27 -13 -23 0 -29 4 -24 16 6 17 44 15
51 -3z m-148 -87 c0 -2 -7 -7 -16 -10 -8 -3 -12 -2 -9 4 6 10 25 14 25 6z m60
-105 c0 -67 -4 -71 -81 -71 l-49 0 23 27 c57 69 90 103 98 103 5 0 9 -27 9
-59z m-414 -106 c-24 -18 -33 -19 -42 -3 -5 8 -2 9 9 5 9 -3 19 -2 22 3 4 6
12 10 18 10 7 0 3 -7 -7 -15z"/>
<path d="M4529 9683 c-14 -3 -17 -34 -24 -226 -4 -122 -4 -238 0 -258 6 -32 9
-35 36 -31 16 2 27 8 24 12 -2 4 -5 120 -6 259 0 138 -4 250 -7 250 -4 -1 -14
-3 -23 -6z"/>
<path d="M2400 9670 c0 -5 5 -10 10 -10 6 0 10 5 10 10 0 6 -4 10 -10 10 -5 0
-10 -4 -10 -10z"/>
<path d="M5320 9657 c24 -12 64 -42 89 -67 45 -46 46 -40 3 17 -23 31 -94 73
-123 73 -8 0 6 -10 31 -23z"/>
<path d="M892 9640 c-36 -22 -72 -74 -72 -105 0 -32 38 -85 70 -99 17 -7 28
-15 24 -19 -3 -3 -6 -1190 -5 -2636 1 -2128 -1 -2631 -11 -2631 -10 0 -14 -55
-16 -245 l-4 -245 22 0 c21 0 21 -1 19 -210 -1 -116 0 -213 3 -215 3 -3 17 1
32 9 15 8 24 15 19 17 -4 2 -7 91 -5 196 l3 193 41 6 41 7 -7 151 c-3 83 -9
192 -12 243 l-7 92 -46 3 -45 3 -3 2460 c-1 1353 1 2540 4 2637 l6 177 29 12
c41 17 78 65 78 101 0 23 -11 42 -44 74 -49 49 -66 53 -114 24z m90 -64 c37
-45 10 -106 -47 -106 -62 0 -86 70 -40 116 29 29 59 26 87 -10z"/>
<path d="M910 9556 c-20 -25 -5 -48 27 -40 37 9 39 12 27 32 -15 23 -38 26
-54 8z"/>
<path d="M1630 9640 c0 -11 5 -20 10 -20 6 0 10 9 10 20 0 11 -4 20 -10 20 -5
0 -10 -9 -10 -20z"/>
<path d="M1893 9648 c2 -7 0 -22 -6 -33 -9 -18 -9 -19 6 -6 19 15 23 51 6 51
-6 0 -9 -6 -6 -12z"/>
<path d="M9593 9645 c-44 -19 -75 -70 -70 -115 5 -41 -9 -62 -118 -185 -39
-44 -101 -118 -137 -165 -103 -133 -95 -130 -157 -60 -55 64 -99 82 -87 37 3
-14 -1 -33 -11 -48 -49 -70 -209 -263 -245 -293 l-41 -36 -16 23 c-23 34 -44
47 -70 44 -30 -3 -41 -27 -13 -27 23 0 72 -36 72 -53 0 -7 -38 -50 -85 -97
-71 -71 -90 -84 -117 -85 -29 0 -33 -3 -36 -31 -2 -19 3 -36 15 -46 17 -15 25
-9 126 103 95 105 110 117 130 110 20 -8 33 4 117 107 52 63 120 150 151 193
l56 78 44 -45 c87 -86 74 -90 177 54 50 70 116 157 149 193 32 36 77 87 100
113 36 42 44 46 62 36 21 -11 21 -15 21 -420 0 -403 -4 -460 -33 -460 -41 0
-94 -114 -83 -176 8 -40 60 -104 86 -104 16 0 19 -13 25 -102 3 -57 5 -413 3
-793 l-3 -690 -43 -3 -43 -3 7 170 c5 124 4 171 -4 171 -24 0 -34 -47 -39
-191 l-6 -149 -34 0 -33 0 0 -273 c0 -282 2 -297 41 -297 24 0 30 -36 27 -152
-2 -67 1 -101 9 -109 22 -22 28 1 31 131 l4 128 35 7 c19 3 38 3 42 0 3 -4 7
-450 9 -991 2 -628 6 -984 12 -984 10 0 14 818 10 2405 -1 440 2 1005 6 1256
l7 456 34 18 c42 23 85 92 86 139 1 47 -43 111 -88 127 -27 10 -35 19 -36 39
-6 137 5 836 13 839 5 2 25 17 44 33 29 26 34 36 34 75 0 38 -5 50 -34 79 -37
37 -55 40 -103 19z m71 -66 c30 -36 32 -46 10 -77 -20 -29 -49 -28 -80 3 -29
29 -26 58 8 88 27 23 32 22 62 -14z m-2 -1058 c28 -25 31 -33 30 -82 0 -29 -6
-55 -12 -57 -5 -2 -8 -7 -5 -12 7 -12 -44 -50 -66 -50 -26 0 -89 70 -89 99 0
29 43 106 68 120 27 16 39 13 74 -18z"/>
<path d="M9622 9559 c2 -19 8 -33 13 -31 15 3 12 55 -3 60 -10 3 -13 -5 -10
-29z"/>
<path d="M9598 8443 c-23 -27 -28 -49 -14 -68 16 -23 56 -4 81 38 17 30 17 31
1 18 -16 -13 -17 -13 -14 5 4 26 -33 31 -54 7z m42 -23 c0 -10 -9 -24 -20 -30
-17 -9 -20 -8 -20 13 0 27 7 37 27 37 7 0 13 -9 13 -20z"/>
<path d="M3175 9640 c3 -5 8 -10 11 -10 2 0 4 5 4 10 0 6 -5 10 -11 10 -5 0
-7 -4 -4 -10z"/>
<path d="M2787 9621 c-3 -12 -1 -24 4 -27 13 -8 24 25 12 37 -7 7 -12 3 -16
-10z"/>
<path d="M5111 9624 c-1 -11 6 -29 15 -40 8 -10 12 -13 9 -6 -4 8 -11 26 -15
40 -7 22 -8 23 -9 6z"/>
<path d="M1270 9621 c0 -6 5 -13 10 -16 6 -3 10 1 10 9 0 9 -4 16 -10 16 -5 0
-10 -4 -10 -9z"/>
<path d="M4388 9623 c-17 -4 -18 -24 -18 -234 l0 -229 42 0 41 0 -6 107 c-4
58 -7 164 -7 235 0 138 1 135 -52 121z"/>
<path d="M5180 9620 c0 -5 5 -10 10 -10 6 0 10 5 10 10 0 6 -4 10 -10 10 -5 0
-10 -4 -10 -10z"/>
<path d="M4245 9496 c-4 -58 -4 -159 0 -226 l8 -121 26 3 26 3 3 211 c2 179 0
213 -13 224 -13 11 -15 7 -16 -31 l-1 -44 -8 38 c-12 64 -17 52 -25 -57z"/>
<path d="M1630 9556 c0 -31 6 -34 13 -6 3 11 1 23 -4 26 -5 3 -9 -6 -9 -20z"/>
<path d="M2395 9541 c-3 -5 -1 -12 5 -16 5 -3 10 1 10 9 0 18 -6 21 -15 7z"/>
<path d="M2780 9535 c0 -8 7 -15 15 -15 8 0 15 7 15 15 0 8 -7 15 -15 15 -8 0
-15 -7 -15 -15z"/>
<path d="M5170 9381 c0 -107 4 -171 10 -171 6 0 10 61 10 164 0 99 -4 167 -10
171 -7 4 -10 -53 -10 -164z"/>
<path d="M1270 9519 c0 -5 5 -7 10 -4 6 3 10 8 10 11 0 2 -4 4 -10 4 -5 0 -10
-5 -10 -11z"/>
<path d="M1630 9500 c0 -5 5 -10 11 -10 5 0 7 5 4 10 -3 6 -8 10 -11 10 -2 0
-4 -4 -4 -10z"/>
<path d="M8660 9485 c0 -23 23 -28 53 -12 32 17 25 27 -20 27 -23 0 -33 -5
-33 -15z"/>
<path d="M8780 9480 c0 -17 7 -20 40 -20 33 0 40 3 40 20 0 17 -7 20 -40 20
-33 0 -40 -3 -40 -20z"/>
<path d="M8881 9479 c1 -13 4 -35 8 -49 l7 -25 7 28 c9 32 27 34 83 11 37 -16
39 -15 52 5 8 12 24 21 36 21 20 1 20 1 2 12 -10 6 -59 13 -108 16 -88 5 -88
5 -87 -19z"/>
<path d="M2397 9470 c-3 -11 -1 -20 4 -20 5 0 9 9 9 20 0 11 -2 20 -4 20 -2 0
-6 -9 -9 -20z"/>
<path d="M4115 9480 c-4 -6 -4 -78 0 -161 l8 -149 29 0 29 0 -3 158 -3 157
-27 3 c-14 2 -29 -2 -33 -8z"/>
<path d="M5476 9435 c4 -33 8 -62 10 -64 8 -9 2 85 -7 104 -6 13 -7 0 -3 -40z"/>
<path d="M8550 9480 c-11 -7 -5 -10 23 -10 20 0 37 5 37 10 0 13 -40 13 -60 0z"/>
<path d="M9120 9480 c0 -5 16 -10 35 -10 19 0 35 5 35 10 0 6 -16 10 -35 10
-19 0 -35 -4 -35 -10z"/>
<path d="M9245 9480 c3 -5 15 -10 26 -10 10 0 19 5 19 10 0 6 -12 10 -26 10
-14 0 -23 -4 -19 -10z"/>
<path d="M9343 9478 c2 -7 14 -13 27 -13 13 0 25 6 28 13 2 8 -7 12 -28 12
-21 0 -30 -4 -27 -12z"/>
<path d="M6292 9446 c15 -48 5 -66 -35 -66 -42 0 -57 15 -58 60 l-1 35 -7 -30
c-9 -40 -4 -59 25 -86 29 -27 76 -29 105 -3 20 18 21 18 39 -6 10 -13 16 -28
14 -32 -3 -4 2 -8 10 -8 20 0 20 14 0 45 -22 34 -11 71 27 94 42 26 21 34 -34
14 -43 -16 -47 -16 -65 0 -27 25 -31 21 -20 -17z"/>
<path d="M7309 9463 c-13 -16 -12 -17 4 -4 9 7 17 15 17 17 0 8 -8 3 -21 -13z"/>
<path d="M2785 9460 c3 -5 12 -7 20 -3 21 7 19 13 -6 13 -11 0 -18 -4 -14 -10z"/>
<path d="M2789 9410 c-2 -19 -2 -48 1 -65 l6 -30 6 34 c2 18 2 48 -2 65 l-7
31 -4 -35z"/>
<path d="M1270 9391 c0 -6 -8 -11 -17 -12 -15 0 -15 -2 2 -8 24 -10 47 -3 42
12 -5 15 -27 21 -27 8z"/>
<path d="M1625 9390 c-3 -5 0 -19 8 -30 12 -18 15 -18 20 -5 12 29 -13 60 -28
35z"/>
<path d="M1035 9381 c19 -9 203 -15 194 -7 -2 2 -51 6 -109 10 -66 3 -98 2
-85 -3z"/>
<path d="M1335 9380 c-7 -12 32 -12 60 0 16 7 13 9 -17 9 -20 1 -40 -3 -43 -9z"/>
<path d="M1420 9380 c0 -5 10 -10 23 -10 18 0 19 2 7 10 -19 13 -30 13 -30 0z"/>
<path d="M1513 9383 c15 -2 37 -2 50 0 12 2 0 4 -28 4 -27 0 -38 -2 -22 -4z"/>
<path d="M2393 9376 c4 -10 7 -26 7 -37 0 -10 4 -19 9 -19 14 0 5 64 -9 68 -9
3 -11 -1 -7 -12z"/>
<path d="M4012 9374 c-20 -14 -22 -23 -22 -116 0 -99 0 -100 23 -94 12 3 28 6
35 6 9 0 12 29 12 110 0 118 -4 125 -48 94z"/>
<path d="M2512 9373 c37 -2 100 -2 140 0 40 1 10 3 -67 3 -77 0 -110 -1 -73
-3z"/>
<path d="M3090 9359 c-19 -12 -59 -44 -90 -70 -30 -27 -75 -60 -100 -72 -43
-22 -56 -47 -24 -47 37 0 244 153 244 180 0 22 11 25 38 12 11 -6 27 -4 42 4
24 13 22 14 -25 14 -34 0 -61 -7 -85 -21z"/>
<path d="M6460 9339 c-22 -18 -22 -19 -3 -10 12 6 25 16 28 21 9 15 3 12 -25
-11z"/>
<path d="M1635 9310 c-3 -5 -1 -10 4 -10 6 0 11 5 11 10 0 6 -2 10 -4 10 -3 0
-8 -4 -11 -10z"/>
<path d="M2780 9286 c0 -2 7 -9 15 -16 12 -10 15 -10 15 4 0 9 -7 16 -15 16
-8 0 -15 -2 -15 -4z"/>
<path d="M3162 9278 c5 -15 28 -23 28 -10 0 5 -7 13 -16 16 -10 4 -14 1 -12
-6z"/>
<path d="M1638 9252 c-2 -15 -1 -52 3 -82 6 -52 6 -51 8 28 1 83 -3 105 -11
54z"/>
<path d="M2406 9271 c-4 -7 -5 -15 -2 -18 9 -9 19 4 14 18 -4 11 -6 11 -12 0z"/>
<path d="M2622 9228 c-23 -17 -40 -34 -38 -36 2 -2 26 8 52 22 59 31 78 32
129 6 42 -22 75 -26 75 -10 0 6 -7 10 -15 10 -8 0 -15 4 -15 9 0 5 -8 7 -19 4
-10 -3 -32 2 -49 11 -46 23 -74 20 -120 -16z"/>
<path d="M1271 9224 c0 -11 3 -14 6 -6 3 7 2 16 -1 19 -3 4 -6 -2 -5 -13z"/>
<path d="M6515 9224 c-55 -29 -72 -78 -40 -111 22 -22 97 -9 135 23 32 27 40
70 18 92 -17 17 -77 14 -113 -4z m95 -17 c0 -27 -32 -61 -71 -76 -54 -20 -54
32 -1 71 47 34 72 36 72 5z"/>
<path d="M1272 9175 c0 -16 2 -22 5 -12 2 9 2 23 0 30 -3 6 -5 -1 -5 -18z"/>
<path d="M3160 9190 c0 -5 5 -10 10 -10 6 0 10 5 10 10 0 6 -4 10 -10 10 -5 0
-10 -4 -10 -10z"/>
<path d="M2400 9155 c0 -8 5 -15 10 -15 6 0 10 7 10 15 0 8 -4 15 -10 15 -5 0
-10 -7 -10 -15z"/>
<path d="M2788 9153 c-2 -5 -1 -26 3 -48 l6 -40 2 48 c1 44 -3 57 -11 40z"/>
<path d="M1265 9131 c-3 -5 -1 -12 5 -16 5 -3 10 1 10 9 0 18 -6 21 -15 7z"/>
<path d="M1271 9085 c-9 -76 -4 -189 7 -193 8 -2 12 8 12 32 0 20 -4 36 -8 36
-11 0 -2 72 10 88 7 8 7 12 0 12 -6 0 -13 10 -15 23 -4 20 -5 20 -6 2z"/>
<path d="M5410 9090 c-11 -7 -4 -10 25 -10 29 0 36 3 25 10 -8 5 -19 10 -25
10 -5 0 -17 -5 -25 -10z"/>
<path d="M5523 9093 c9 -2 23 -2 30 0 6 3 -1 5 -18 5 -16 0 -22 -2 -12 -5z"/>
<path d="M3822 9061 c13 -16 32 -34 43 -41 11 -7 2 6 -20 29 -45 48 -57 54
-23 12z"/>
<path d="M5778 9083 c12 -2 32 -2 45 0 12 2 2 4 -23 4 -25 0 -35 -2 -22 -4z"/>
<path d="M5880 9080 c0 -5 15 -10 33 -9 27 0 29 2 12 9 -28 12 -45 12 -45 0z"/>
<path d="M2408 9068 c-3 -7 -2 -22 3 -33 6 -17 8 -17 8 -2 1 10 9 17 24 18 20
1 20 2 2 6 -11 3 -23 10 -26 15 -4 6 -8 4 -11 -4z"/>
<path d="M6905 9060 c-3 -5 -2 -10 4 -10 5 0 13 5 16 10 3 6 2 10 -4 10 -5 0
-13 -4 -16 -10z"/>
<path d="M1013 9053 c31 -2 83 -2 115 0 31 2 5 3 -58 3 -63 0 -89 -1 -57 -3z"/>
<path d="M2482 9055 c7 -7 468 -8 475 -1 4 3 -103 6 -237 6 -134 0 -241 -2
-238 -5z"/>
<path d="M3160 9051 c0 -6 5 -13 10 -16 6 -3 10 1 10 9 0 9 -4 16 -10 16 -5 0
-10 -4 -10 -9z"/>
<path d="M6020 9049 c0 -5 9 -9 20 -9 11 0 20 2 20 4 0 2 -9 6 -20 9 -11 3
-20 1 -20 -4z"/>
<path d="M1403 9043 c43 -2 110 -2 150 0 40 1 5 3 -78 3 -82 0 -115 -2 -72 -3z"/>
<path d="M7396 9023 c-6 -14 -5 -15 5 -6 7 7 10 15 7 18 -3 3 -9 -2 -12 -12z"/>
<path d="M5166 9015 c-25 -19 -9 -19 24 0 14 8 19 14 10 14 -8 0 -24 -6 -34
-14z"/>
<path d="M2570 9006 c0 -16 36 -64 68 -90 13 -11 32 -28 42 -38 18 -19 19 -19
49 26 32 46 61 60 61 30 0 -8 5 -12 10 -9 12 7 14 82 2 88 -4 3 -27 -19 -52
-49 -25 -29 -52 -52 -60 -51 -8 1 -32 26 -54 55 -37 50 -66 67 -66 38z"/>
<path d="M6120 9010 c8 -5 20 -10 25 -10 6 0 3 5 -5 10 -8 5 -19 10 -25 10 -5
0 -3 -5 5 -10z"/>
<path d="M6844 8995 c-10 -8 -14 -15 -8 -15 6 0 17 7 24 15 16 19 9 19 -16 0z"/>
<path d="M2411 8984 c0 -11 3 -14 6 -6 3 7 2 16 -1 19 -3 4 -6 -2 -5 -13z"/>
<path d="M3910 8991 c0 -5 7 -15 17 -22 15 -13 15 -12 4 9 -12 23 -21 28 -21
13z"/>
<path d="M6220 8978 c0 -3 20 -19 45 -37 49 -35 62 -30 15 6 -28 23 -60 39
-60 31z"/>
<path d="M7311 8944 c0 -11 3 -14 6 -6 3 7 2 16 -1 19 -3 4 -6 -2 -5 -13z"/>
<path d="M3160 8930 c0 -5 5 -10 10 -10 6 0 10 5 10 10 0 6 -4 10 -10 10 -5 0
-10 -4 -10 -10z"/>
<path d="M2413 8880 c0 -30 2 -43 4 -27 2 15 2 39 0 55 -2 15 -4 2 -4 -28z"/>
<path d="M4012 8900 c7 -11 17 -20 22 -20 5 0 1 9 -9 20 -10 11 -20 20 -22 20
-2 0 2 -9 9 -20z"/>
<path d="M7240 8874 c0 -8 5 -12 10 -9 6 4 8 11 5 16 -9 14 -15 11 -15 -7z"/>
<path d="M2780 8866 c0 -9 7 -16 16 -16 17 0 14 22 -4 28 -7 2 -12 -3 -12 -12z"/>
<path d="M3160 8870 c0 -5 5 -10 10 -10 6 0 10 5 10 10 0 6 -4 10 -10 10 -5 0
-10 -4 -10 -10z"/>
<path d="M4890 8869 c0 -5 5 -7 10 -4 6 3 10 8 10 11 0 2 -4 4 -10 4 -5 0 -10
-5 -10 -11z"/>
<path d="M6384 8865 c26 -19 42 -19 26 0 -7 8 -20 15 -29 15 -13 -1 -13 -3 3
-15z"/>
<path d="M8490 8840 c0 -5 14 -10 30 -10 17 0 30 5 30 10 0 6 -13 10 -30 10
-16 0 -30 -4 -30 -10z"/>
<path d="M4080 8830 c0 -5 7 -10 16 -10 8 0 12 5 9 10 -3 6 -10 10 -16 10 -5
0 -9 -4 -9 -10z"/>
<path d="M2790 8820 c0 -5 5 -10 10 -10 6 0 10 5 10 10 0 6 -4 10 -10 10 -5 0
-10 -4 -10 -10z"/>
<path d="M3160 8810 c0 -5 5 -10 10 -10 6 0 10 5 10 10 0 6 -4 10 -10 10 -5 0
-10 -4 -10 -10z"/>
<path d="M7155 8799 c-11 -17 1 -21 15 -4 8 9 8 15 2 15 -6 0 -14 -5 -17 -11z"/>
<path d="M4787 8794 c-4 -4 -7 -14 -7 -23 0 -11 3 -12 11 -4 6 6 10 16 7 23
-2 6 -7 8 -11 4z"/>
<path d="M2783 8754 c-14 -30 4 -43 34 -25 10 6 12 11 5 11 -7 0 -16 9 -20 19
-7 19 -8 18 -19 -5z"/>
<path d="M4155 8771 c-3 -6 4 -15 15 -21 20 -11 21 -10 10 9 -12 23 -16 25
-25 12z"/>
<path d="M2407 8746 c-3 -8 -2 -18 3 -21 13 -8 20 9 11 24 -6 10 -10 9 -14 -3z"/>
<path d="M3166 8743 c-11 -11 -6 -23 9 -23 8 0 15 4 15 9 0 13 -16 22 -24 14z"/>
<path d="M4707 8729 c-3 -13 -1 -19 6 -16 15 5 22 37 9 37 -5 0 -12 -9 -15
-21z"/>
<path d="M2558 8733 c34 -2 88 -2 120 0 31 2 3 3 -63 3 -66 0 -92 -1 -57 -3z"/>
<path d="M6548 8733 c6 -2 18 -2 25 0 6 3 1 5 -13 5 -14 0 -19 -2 -12 -5z"/>
<path d="M2780 8650 c0 -5 5 -10 10 -10 6 0 10 5 10 10 0 6 -4 10 -10 10 -5 0
-10 -4 -10 -10z"/>
<path d="M6652 8640 c14 -22 24 -19 15 5 -4 8 -11 15 -17 15 -6 0 -6 -7 2 -20z"/>
<path d="M7005 8649 c-11 -17 1 -21 15 -4 8 9 8 15 2 15 -6 0 -14 -5 -17 -11z"/>
<path d="M2412 8625 c0 -16 2 -22 5 -12 2 9 2 23 0 30 -3 6 -5 -1 -5 -18z"/>
<path d="M1636 8611 c-4 -7 -5 -15 -2 -18 9 -9 19 4 14 18 -4 11 -6 11 -12 0z"/>
<path d="M6919 8579 l-24 -20 28 17 c15 9 27 18 27 20 0 8 -8 4 -31 -17z"/>
<path d="M2785 8580 c-3 -5 1 -10 9 -10 9 0 16 5 16 10 0 6 -4 10 -9 10 -6 0
-13 -4 -16 -10z"/>
<path d="M1643 8545 c0 -22 2 -30 4 -17 2 12 2 30 0 40 -3 9 -5 -1 -4 -23z"/>
<path d="M4495 8490 c3 -5 11 -10 16 -10 6 0 7 5 4 10 -3 6 -11 10 -16 10 -6
0 -7 -4 -4 -10z"/>
<path d="M6880 8356 c0 -8 5 -18 10 -21 6 -3 10 1 10 9 0 8 -4 18 -10 21 -5 3
-10 -1 -10 -9z"/>
<path d="M2400 8304 c-102 -17 -146 -32 -225 -72 -257 -133 -397 -411 -366
-722 19 -175 86 -308 225 -437 79 -74 129 -105 227 -139 185 -65 333 -55 514
35 172 85 292 225 363 423 21 60 26 96 30 204 3 80 0 152 -8 189 -14 66 -95
232 -141 288 -67 81 -229 183 -339 213 -55 15 -233 26 -280 18z m60 -222 l0
-177 -62 -12 c-34 -7 -73 -21 -87 -31 l-26 -19 -80 65 c-113 93 -174 153 -169
167 7 17 130 107 182 134 56 29 136 50 195 50 l47 1 0 -178z m179 153 c35 -9
92 -29 125 -45 61 -29 166 -113 166 -132 0 -6 -6 -5 -15 2 -13 11 -14 10 -9
-4 3 -9 2 -16 -4 -16 -6 0 -12 4 -14 9 -1 5 -14 11 -28 13 -18 2 -28 -3 -35
-20 -5 -12 -15 -20 -22 -18 -7 3 -19 -1 -27 -9 -21 -22 -204 -21 -212 0 -4 11
-11 12 -24 5 -9 -5 -20 -6 -24 -3 -3 3 -6 57 -6 120 l0 113 33 0 c17 0 61 -7
96 -15z m-611 -212 c-30 -63 -45 -83 -56 -78 -8 3 -10 0 -6 -6 4 -6 2 -14 -3
-18 -5 -3 -17 -17 -27 -31 -19 -27 -19 -25 8 35 22 48 63 105 77 105 6 0 9 -3
7 -7z m1018 -96 c8 -15 12 -32 9 -37 -3 -6 -1 -10 6 -10 6 0 9 -8 6 -20 -3
-11 -2 -18 3 -15 11 7 20 -35 14 -62 -4 -14 -2 -23 5 -23 15 0 11 -122 -4
-132 -5 -4 -60 -8 -121 -8 l-111 0 -7 49 c-7 56 -30 117 -53 143 -14 16 -11
21 38 66 131 119 146 128 177 99 13 -12 30 -35 38 -50z m-926 13 c0 -5 -5 -10
-11 -10 -5 0 -7 5 -4 10 3 6 8 10 11 10 2 0 4 -4 4 -10z m487 -114 c60 -30 86
-58 114 -120 44 -100 20 -230 -55 -293 -52 -44 -131 -75 -194 -76 -99 0 -169
50 -218 157 -44 96 -28 192 48 288 61 78 199 98 305 44z m390 -237 l116 -1 -6
-66 c-7 -89 -25 -150 -39 -131 -7 10 -9 7 -5 -12 3 -24 1 -26 -32 -25 -26 1
-35 -3 -33 -13 2 -7 -6 -24 -18 -36 -22 -23 -18 -37 7 -28 13 5 13 3 4 -13 -5
-10 -15 -26 -21 -34 -9 -12 -10 -10 -6 11 4 20 -1 32 -24 54 -17 17 -35 25
-44 22 -9 -4 -16 -2 -16 3 0 17 -15 11 -28 -11 -11 -18 -11 -23 5 -35 16 -14
16 -14 -6 -3 -20 9 -26 9 -36 -4 -10 -14 -14 -14 -40 3 -46 30 -47 42 -13 96
42 66 65 120 79 183 8 39 15 51 25 47 8 -3 67 -6 131 -7z m-835 -56 c9 -57 33
-100 82 -151 47 -50 78 -68 156 -93 l55 -17 3 -171 2 -171 -22 0 c-85 1 -246
66 -330 133 -146 117 -222 252 -253 453 l-6 42 108 6 c59 4 122 8 138 10 54 5
59 2 67 -41z m853 -284 c-9 -17 -19 -29 -22 -26 -5 5 25 57 33 57 3 0 -3 -14
-11 -31z"/>
<path d="M2404 7683 c-37 -27 -19 -65 45 -94 l44 -19 -15 22 c-9 13 -24 25
-34 27 -22 4 -44 20 -44 32 0 13 34 11 49 -3 10 -11 12 -8 9 12 -3 26 -32 38
-54 23z"/>
<path d="M2527 7684 c-13 -13 -7 -27 6 -15 10 8 17 7 26 -2 11 -10 13 -9 9 3
-5 16 -30 25 -41 14z"/>
<path d="M2507 7603 c-4 -3 -7 -13 -7 -22 1 -13 3 -13 11 2 11 19 8 33 -4 20z"/>
<path d="M2554 7591 c9 -10 14 -25 10 -34 -7 -18 -39 -31 -54 -22 -5 3 -10 1
-10 -5 0 -31 74 -18 87 16 8 20 -16 64 -35 64 -13 0 -12 -3 2 -19z"/>
<path d="M2380 7547 c0 -32 67 -49 89 -23 9 11 6 15 -16 19 -16 3 -38 8 -50
12 -17 6 -23 3 -23 -8z"/>
<path d="M8822 8279 c-97 -19 -178 -84 -224 -179 -32 -64 -32 -205 -1 -272 46
-99 134 -167 247 -189 50 -11 62 -9 118 11 161 59 228 149 228 306 0 200 -183
360 -368 323z m142 -46 c66 -23 134 -82 164 -143 23 -46 27 -68 27 -135 0
-125 -49 -203 -159 -256 -83 -40 -133 -45 -198 -23 -76 27 -161 113 -182 184
-45 151 10 297 137 361 79 41 122 43 211 12z"/>
<path d="M8742 8081 c-16 -9 -27 -81 -15 -97 4 -5 25 -20 46 -33 46 -28 51
-61 9 -61 -15 0 -33 5 -39 11 -12 12 -33 4 -33 -11 0 -35 94 -57 106 -25 8 21
24 8 24 -20 0 -18 16 -35 35 -35 1 0 8 21 14 47 8 29 34 76 67 119 49 66 67
105 47 103 -12 0 -85 -96 -110 -142 -12 -23 -22 -57 -23 -74 0 -18 -4 -33 -9
-33 -13 0 -23 122 -12 150 7 18 10 20 10 8 1 -28 21 -21 21 6 0 14 5 37 10 51
12 32 4 51 -15 35 -9 -8 -15 -8 -20 0 -7 12 -94 13 -113 1z m88 -71 l0 -51
-25 18 c-29 22 -37 40 -30 64 4 12 16 19 31 19 22 0 24 -4 24 -50z"/>
<path d="M8957 7943 c-28 -32 -31 -69 -8 -92 39 -39 119 -21 122 27 4 51 -21
82 -66 82 -18 0 -39 -8 -48 -17z m68 -52 c0 -30 -17 -37 -38 -16 -21 20 -10
47 17 43 15 -2 21 -10 21 -27z"/>
<path d="M1243 8183 c-38 -7 -26 -23 17 -23 39 0 39 -1 29 -27 -5 -14 -23 -41
-39 -60 -17 -19 -30 -38 -30 -43 0 -6 27 -10 60 -10 49 0 60 3 60 16 0 12 -7
15 -30 12 -37 -5 -37 1 -5 49 35 51 31 88 -10 89 -16 1 -40 0 -52 -3z"/>
<path d="M1417 8172 c-32 -35 -9 -80 33 -67 26 8 21 29 -8 33 -12 2 -22 8 -22
14 0 6 13 8 30 6 32 -5 37 1 18 20 -17 17 -32 15 -51 -6z"/>
<path d="M1513 8138 c-49 -66 -66 -96 -60 -111 3 -7 9 -1 15 13 6 14 20 36 31
50 l21 25 0 -31 c0 -49 49 -81 78 -52 31 31 -3 93 -46 81 -29 -7 -28 8 4 46
18 22 22 31 11 31 -8 0 -32 -24 -54 -52z m65 -50 c17 -17 15 -48 -3 -48 -17 0
-39 36 -30 50 8 13 18 13 33 -2z"/>
<path d="M1167 8161 c6 -7 9 -20 6 -27 -3 -8 -3 -14 0 -14 14 0 14 30 -1 41
-14 11 -15 11 -5 0z"/>
<path d="M7262 8075 c-9 -21 -11 -49 -7 -89 10 -83 27 -49 23 46 -3 70 -4 72
-16 43z"/>
<path d="M1380 8040 c0 -13 5 -20 13 -17 6 2 12 10 12 17 0 7 -6 15 -12 18 -8
2 -13 -5 -13 -18z"/>
<path d="M1128 8033 c6 -2 18 -2 25 0 6 3 1 5 -13 5 -14 0 -19 -2 -12 -5z"/>
<path d="M8535 7823 c-5 -10 -10 -85 -12 -168 -5 -192 -6 -197 -39 -185 -14 6
-27 10 -30 10 -2 0 -4 -200 -4 -444 l0 -445 28 -3 27 -3 -3 -279 c-4 -301 0
-355 24 -336 11 10 14 61 15 284 1 149 4 285 8 301 5 27 11 30 47 33 l42 3 7
172 c3 95 5 291 3 437 l-3 265 -42 3 -43 3 0 172 c0 167 -8 220 -25 180z"/>
<path d="M1315 7703 c-6 -17 25 -53 45 -53 10 0 22 48 15 60 -10 17 -52 11
-60 -7z m45 -17 c0 -3 -4 -8 -10 -11 -5 -3 -10 -1 -10 4 0 6 5 11 10 11 6 0
10 -2 10 -4z"/>
<path d="M1194 7699 c-10 -18 13 -32 40 -25 37 9 34 36 -3 36 -17 0 -33 -5
-37 -11z"/>
<path d="M1430 7698 c0 -8 6 -22 13 -32 11 -16 17 -17 36 -7 32 18 23 45 -17
49 -22 2 -32 -1 -32 -10z m45 -18 c-3 -5 -12 -10 -18 -10 -7 0 -6 4 3 10 19
12 23 12 15 0z"/>
<path d="M9187 7604 c-4 -4 -7 -70 -7 -146 l0 -138 -40 0 -40 0 1 -197 c1
-109 4 -286 8 -393 l6 -195 34 -3 34 -4 -6 -319 c-7 -315 -7 -319 13 -319 12
0 20 7 20 18 0 9 1 127 1 262 0 135 4 270 7 300 l7 55 38 -2 c23 -2 37 2 37
10 1 7 3 186 6 399 l6 387 -43 3 -42 3 -1 140 c-1 118 -3 140 -16 143 -9 1
-19 0 -23 -4z"/>
<path d="M1258 7483 c-19 -5 -24 -28 -9 -37 5 -3 23 -3 40 0 33 7 41 28 15 38
-17 6 -19 6 -46 -1z"/>
<path d="M1120 7465 c0 -11 11 -15 40 -15 29 0 40 4 40 15 0 11 -11 15 -40 15
-29 0 -40 -4 -40 -15z"/>
<path d="M1360 7456 c0 -19 4 -22 25 -18 15 2 25 0 25 -7 0 -6 -11 -16 -25
-21 -25 -10 -33 -39 -19 -74 11 -28 34 -18 34 14 0 17 4 30 9 30 11 0 22 66
14 86 -3 8 -18 14 -34 14 -24 0 -29 -4 -29 -24z"/>
<path d="M1480 7465 c0 -12 8 -16 33 -13 17 2 32 8 32 13 0 6 -15 11 -32 13
-25 3 -33 -1 -33 -13z"/>
<path d="M1256 7419 c3 -6 15 -9 25 -6 11 3 19 1 19 -5 0 -20 -21 -48 -36 -48
-11 0 -14 -6 -10 -16 3 -9 6 -18 6 -20 0 -2 8 -4 19 -4 23 0 46 53 42 98 -1 7
-15 12 -37 12 -23 0 -33 -4 -28 -11z"/>
<path d="M1137 7413 c-14 -13 -6 -23 17 -23 14 0 27 -4 30 -8 9 -15 -11 -34
-32 -30 -12 1 -21 0 -22 -4 -1 -24 3 -28 30 -28 23 0 31 5 36 25 10 41 -3 75
-30 75 -12 0 -26 -3 -29 -7z"/>
<path d="M1454 7396 c-8 -32 3 -64 26 -76 29 -15 62 21 58 63 -3 29 -6 32 -40
35 -33 3 -38 0 -44 -22z m64 -20 c5 -24 -10 -38 -31 -30 -17 6 -23 35 -10 48
12 12 38 1 41 -18z"/>
<path d="M8869 7173 c-1 -5 -4 -89 -8 -188 l-6 -180 -47 -3 -48 -3 1 -117 c0
-64 4 -137 7 -162 7 -44 8 -45 47 -50 l40 -5 5 -245 c5 -223 7 -245 23 -248
16 -3 17 11 19 185 1 103 0 214 -1 246 l-3 57 45 0 46 0 6 43 c3 23 5 98 3
167 l-3 125 -47 3 -48 3 0 190 c0 161 -2 189 -15 189 -8 0 -16 -3 -16 -7z m69
-398 c2 -2 6 -65 9 -140 l6 -136 -84 3 -84 3 -3 70 c-2 39 0 103 3 143 l7 73
71 -7 c40 -4 73 -8 75 -9z"/>
<path d="M1218 7164 c-15 -15 6 -34 39 -34 27 0 34 4 31 18 -3 17 -57 30 -70
16z"/>
<path d="M1313 7155 c-8 -23 -1 -26 58 -23 50 3 52 4 35 21 -22 22 -84 23 -93
2z"/>
<path d="M1458 7163 c-10 -2 -18 -11 -18 -19 0 -10 13 -14 45 -14 32 0 45 4
45 14 0 22 -31 30 -72 19z"/>
<path d="M1110 7145 c0 -11 11 -15 40 -15 29 0 40 4 40 15 0 11 -11 15 -40 15
-29 0 -40 -4 -40 -15z"/>
<path d="M1560 7145 c0 -10 10 -15 30 -15 20 0 30 5 30 15 0 10 -10 15 -30 15
-20 0 -30 -5 -30 -15z"/>
<path d="M1178 7082 c-57 -3 -74 -14 -42 -26 9 -4 22 -2 29 4 8 6 34 8 67 4
37 -4 58 -3 62 5 4 6 0 11 -11 12 -10 0 -25 1 -33 2 -8 1 -41 1 -72 -1z"/>
<path d="M1325 7070 c3 -5 26 -10 51 -10 24 0 44 5 44 10 0 6 -23 10 -51 10
-31 0 -48 -4 -44 -10z"/>
<path d="M1465 7070 c-4 -6 10 -10 34 -10 23 0 41 5 41 10 0 6 -15 10 -34 10
-19 0 -38 -4 -41 -10z"/>
<path d="M1588 7073 c7 -3 16 -2 19 1 4 3 -2 6 -13 5 -11 0 -14 -3 -6 -6z"/>
<path d="M3819 6993 c-58 -36 -75 -111 -39 -171 13 -21 31 -35 50 -39 l30 -5
0 -100 c0 -75 3 -99 13 -96 8 3 13 34 15 99 3 92 3 94 31 111 41 23 66 65 66
111 0 32 -7 45 -38 73 -42 38 -85 44 -128 17z m99 -49 c16 -11 22 -25 22 -51
0 -49 -24 -73 -72 -73 -34 0 -40 4 -55 35 -13 28 -14 39 -5 60 19 42 72 56
110 29z"/>
<path d="M4310 6938 c-65 -33 -90 -76 -90 -153 0 -103 57 -166 157 -173 49 -3
64 0 93 20 124 84 116 250 -15 309 -53 25 -92 24 -145 -3z m160 -73 c6 -8 9
-19 6 -24 -4 -6 -9 -33 -11 -62 -2 -28 -7 -54 -10 -57 -3 -3 -31 -8 -63 -10
l-57 -4 2 78 c1 44 2 82 2 87 2 14 118 8 131 -8z"/>
<path d="M1310 6720 c-95 -10 -190 -79 -174 -127 5 -14 4 -15 -4 -3 -12 16
-21 0 -42 -81 -21 -75 7 -171 70 -243 34 -38 103 -80 114 -69 3 4 6 1 6 -5 0
-6 26 -11 68 -11 55 0 78 6 129 31 59 29 120 88 106 102 -4 3 -2 6 4 6 6 0 13
9 16 20 4 17 2 18 -15 9 -15 -8 -19 -8 -14 0 4 7 -1 11 -13 11 -24 0 -51 36
-44 59 3 12 1 11 -11 -3 -16 -19 -16 -19 -16 2 0 12 3 22 8 22 8 0 37 58 37
75 1 30 65 -7 65 -37 0 -10 4 -17 9 -13 5 3 12 -7 15 -22 2 -16 3 -3 2 27 -2
58 -39 145 -78 187 -24 26 -99 59 -148 65 -19 2 -60 1 -90 -2z m117 -138 c19
-20 16 -31 -17 -60 -37 -33 -39 -45 -2 -26 35 18 66 18 82 -1 10 -12 9 -23 -3
-53 -22 -54 -11 -100 20 -88 8 3 11 1 8 -4 -3 -6 3 -10 13 -10 44 0 51 -60 8
-66 -9 -1 -14 2 -10 7 3 5 10 6 16 3 8 -5 9 -1 5 10 -5 12 -3 15 6 10 7 -4 9
-3 4 2 -5 5 -12 8 -15 7 -4 -1 -14 4 -22 11 -26 23 -50 27 -57 10 -5 -13 -7
-13 -14 -2 -6 10 -11 10 -21 0 -6 -6 -17 -12 -22 -12 -6 0 -4 5 4 10 12 8 10
10 -8 10 -13 0 -20 -4 -17 -10 3 -5 2 -10 -4 -10 -5 0 -13 5 -16 10 -4 7 -14
5 -28 -5 -29 -20 -60 -19 -81 4 -17 18 -17 20 1 29 10 5 24 8 31 6 7 -1 8 0 3
2 -7 4 -5 14 4 28 24 36 10 57 -34 51 -40 -6 -75 9 -53 23 19 13 32 68 19 82
-9 8 -8 10 4 5 9 -3 24 1 33 10 9 9 16 12 16 7 0 -13 48 -33 52 -21 2 5 13 11
26 12 12 0 22 5 22 9 0 4 6 8 14 8 9 0 13 8 10 23 -2 12 -1 16 2 7 4 -8 13
-21 21 -28z m-227 -52 c0 -20 2 -22 10 -10 8 13 10 13 10 -1 0 -25 -25 -30
-38 -9 -6 11 -14 33 -17 50 -5 29 -5 30 15 13 11 -10 20 -29 20 -43z m-60 19
c-6 -11 -6 -19 0 -22 6 -3 5 -4 -2 -3 -19 4 -22 43 -4 43 11 0 13 -5 6 -18z
m337 -25 c-3 -3 -12 -4 -19 -1 -8 3 -5 6 6 6 11 1 17 -2 13 -5z m-317 -53 c0
-12 -21 -19 -37 -13 -22 8 -14 22 12 22 14 0 25 -4 25 -9z m-43 -93 c-3 -8 -6
-5 -6 6 -1 11 2 17 5 13 3 -3 4 -12 1 -19z m67 7 c3 -8 2 -15 -3 -15 -5 0 -14
7 -21 15 -10 12 -10 15 3 15 8 0 17 -7 21 -15z m41 -19 c0 -19 -4 -38 -8 -42
-4 -4 -7 -19 -7 -33 0 -18 -3 -22 -11 -14 -6 6 -17 10 -23 9 -6 -2 -8 -1 -3 1
14 9 7 25 -9 19 -10 -4 -13 -2 -8 6 5 8 2 9 -11 4 -15 -5 -16 -4 -5 9 12 14
15 14 30 0 15 -14 18 -14 30 0 8 10 9 15 1 15 -6 0 -11 5 -11 11 0 5 5 7 12 3
7 -5 9 -2 5 8 -4 12 8 38 18 38 1 0 1 -15 0 -34z m40 24 c-3 -5 -12 -10 -18
-10 -7 0 -6 4 3 10 19 12 23 12 15 0z m260 -80 c3 -5 -1 -10 -9 -10 -9 0 -16
5 -16 10 0 6 4 10 9 10 6 0 13 -4 16 -10z"/>
<path d="M1253 6494 c-9 -20 -9 -24 5 -24 10 0 26 8 37 17 20 15 20 15 -3 10
-12 -3 -20 -1 -17 3 3 5 2 11 -3 13 -4 3 -12 -6 -19 -19z"/>
<path d="M1414 6447 c-10 -6 -30 -12 -44 -13 -14 -1 -31 -2 -37 -3 -16 -1 -18
-81 -2 -81 5 0 7 5 4 10 -3 6 1 13 9 16 9 3 16 12 16 19 0 14 21 25 48 25 9 0
25 7 35 14 23 18 -1 29 -29 13z"/>
<path d="M1420 6397 c0 -9 -8 -21 -17 -26 -16 -9 -15 -10 5 -11 26 0 40 26 23
43 -8 8 -11 7 -11 -6z"/>
<path d="M1600 6416 c0 -13 -6 -17 -19 -13 -14 3 -18 1 -14 -9 8 -21 31 -17
38 7 4 11 4 23 1 26 -3 4 -6 -2 -6 -11z"/>
<path d="M2445 6400 c-23 -9 -41 -41 -48 -83 -4 -24 1 -32 27 -48 41 -25 73
-24 81 2 4 11 4 23 1 26 -3 4 -6 -1 -6 -9 0 -40 -75 -25 -86 16 -14 56 43 107
83 74 14 -11 15 -11 12 1 -7 19 -40 30 -64 21z"/>
<path d="M2576 6402 c-8 -13 -10 -131 -3 -139 4 -3 7 9 7 28 0 19 3 51 6 71 5
30 11 38 33 41 23 4 23 4 -6 6 -17 0 -34 -3 -37 -7z"/>
<path d="M1770 6378 c0 -16 4 -27 8 -25 5 1 20 -11 34 -27 l25 -29 29 38 29
39 6 -60 6 -59 1 75 2 74 -41 -39 c-40 -39 -41 -39 -55 -20 -7 11 -20 29 -28
40 -15 19 -15 19 -16 -7z"/>
<path d="M1995 6390 c-4 -7 -2 -17 4 -23 13 -13 15 -43 4 -50 -5 -2 -2 -2 6 0
7 2 20 -2 28 -8 9 -8 7 4 -7 37 -25 58 -26 59 -35 44z"/>
<path d="M2101 6364 c0 -27 3 -33 8 -20 6 16 13 12 54 -30 l47 -49 0 45 c0 25
3 55 6 68 4 13 2 22 -5 22 -7 0 -11 -20 -11 -50 0 -49 -13 -67 -24 -32 -4 10
-22 33 -41 52 l-35 34 1 -40z"/>
<path d="M2701 6368 c0 -18 4 -51 8 -73 l9 -40 1 48 c0 26 4 47 9 47 4 0 15
-14 25 -32 l18 -31 28 27 c30 28 45 72 30 82 -5 3 -9 -1 -9 -8 0 -7 -10 -29
-21 -48 l-21 -34 -29 34 c-16 19 -29 41 -29 48 0 6 -4 12 -10 12 -5 0 -10 -15
-9 -32z"/>
<path d="M2881 6328 c1 -81 4 -80 14 4 6 52 9 57 33 61 21 3 19 4 -10 6 l-38
1 1 -72z"/>
<path d="M3012 6365 c0 -22 4 -53 8 -70 7 -26 8 -24 9 20 l2 50 49 -55 49 -55
-1 70 c-2 64 -2 65 -5 16 l-4 -53 -54 58 -54 59 1 -40z"/>
<path d="M3188 6391 c21 -5 24 -13 28 -75 6 -93 14 -97 14 -8 0 65 2 72 19 72
11 0 23 5 26 10 4 6 -16 10 -52 9 -36 -1 -49 -3 -35 -8z"/>
<path d="M2298 6352 c-9 -20 -25 -48 -35 -61 -17 -24 -17 -24 5 -10 12 8 22
17 22 21 0 16 35 7 59 -14 l24 -23 -16 25 c-9 13 -17 34 -17 45 0 12 -6 29
-12 38 -12 15 -15 13 -30 -21z m32 -23 c0 -5 -7 -9 -15 -9 -15 0 -20 12 -9 23
8 8 24 -1 24 -14z"/>
<path d="M1963 6315 c-28 -55 -29 -65 -4 -33 18 22 39 78 30 78 -2 0 -14 -21
-26 -45z"/>
<path d="M1771 6314 c0 -11 3 -14 6 -6 3 7 2 16 -1 19 -3 4 -6 -2 -5 -13z"/>
<path d="M2447 6173 c-4 -3 -7 -35 -7 -70 l0 -63 -36 0 -37 0 5 -125 c3 -70 9
-130 15 -136 6 -6 8 35 5 111 l-4 121 68 -3 69 -3 3 -110 c5 -187 28 -147 34
60 l3 90 -42 3 -43 3 0 65 c0 47 -4 64 -13 64 -8 0 -17 -3 -20 -7z"/>
<path d="M2148 6019 c-14 -8 -18 -23 -18 -67 0 -31 -3 -94 -7 -139 l-6 -83
-33 0 -34 0 0 -515 0 -515 29 0 c17 0 31 -6 35 -16 3 -9 6 -99 6 -200 0 -177
1 -184 20 -184 19 0 20 7 20 201 l0 201 43 -6 44 -7 7 516 c4 284 5 520 1 523
-3 3 -25 6 -48 7 l-42 0 4 148 c2 81 2 147 0 147 -2 0 -12 -5 -21 -11z m10
-336 c-16 -2 -40 -2 -55 0 -16 2 -3 4 27 4 30 0 43 -2 28 -4z"/>
<path d="M8674 5815 c0 -55 1 -76 3 -47 2 29 2 74 0 100 -2 26 -3 2 -3 -53z"/>
<path d="M1050 5759 c0 -26 3 -30 18 -24 9 4 29 10 45 13 39 6 34 -15 -8 -35
-48 -23 -44 -35 13 -31 47 3 47 3 50 41 4 53 -11 67 -69 67 -48 0 -49 -1 -49
-31z"/>
<path d="M1218 5783 c-17 -4 -24 -24 -12 -35 3 -3 19 -1 35 6 27 10 33 8 45
-9 14 -19 13 -20 -23 -25 -44 -6 -53 -33 -13 -38 27 -4 50 -19 50 -33 0 -5
-23 -9 -51 -9 -43 0 -50 -3 -47 -17 4 -22 91 -31 115 -12 12 10 16 10 24 -2
15 -23 11 23 -6 71 -8 23 -14 56 -12 73 2 31 1 32 -43 34 -25 0 -53 -1 -62 -4z"/>
<path d="M1390 5770 c-39 -39 -21 -76 38 -82 l34 -3 -26 -37 c-20 -30 -22 -38
-10 -38 16 0 43 55 51 107 10 61 -45 95 -87 53z m59 -19 c12 -22 5 -31 -26
-31 -24 0 -27 7 -17 34 8 22 31 20 43 -3z"/>
<path d="M1521 5753 c-35 -55 -39 -103 -9 -138 20 -23 30 -27 52 -21 29 7 52
45 43 70 -4 9 -22 24 -41 33 l-35 16 19 32 c23 38 25 45 8 45 -7 0 -24 -17
-37 -37z m31 -80 c10 -9 18 -24 18 -35 0 -27 -29 -22 -40 8 -18 47 -10 56 22
27z"/>
<path d="M2458 5716 c-15 -11 -18 -30 -18 -115 l0 -101 -35 0 -35 0 0 -182 c0
-101 -3 -220 -7 -265 l-6 -83 36 0 37 0 2 -287 c3 -248 5 -288 18 -288 13 0
16 41 21 285 3 157 6 286 7 287 1 1 21 3 45 5 l42 3 3 263 2 262 -45 0 -44 0
-3 114 c-3 107 -4 114 -20 102z m70 -489 l2 -228 -67 3 -68 3 1 30 c0 17 1
119 2 228 l2 198 63 -3 62 -3 3 -228z"/>
<path d="M8925 5701 l-50 -18 0 -69 c1 -38 4 -152 8 -254 4 -102 4 -180 -1
-173 -4 7 -9 -64 -10 -157 l-3 -170 53 0 53 0 2 383 c0 210 4 403 7 430 4 26
3 47 -1 46 -4 0 -30 -8 -58 -18z"/>
<path d="M1060 5626 c0 -25 2 -26 55 -26 48 0 55 2 55 20 0 17 -7 20 -39 20
-22 0 -46 3 -55 6 -12 5 -16 0 -16 -20z"/>
<path d="M9227 5630 c-20 -4 -39 -9 -42 -11 -7 -8 13 -292 25 -344 10 -47 8
-175 -6 -347 l-6 -68 43 0 44 0 5 113 c6 151 6 197 -4 445 -5 117 -12 214 -15
216 -3 1 -23 -1 -44 -4z"/>
<path d="M9415 5564 c-6 -3 -9 -127 -7 -354 l3 -349 33 -7 c70 -13 66 -31 67
296 0 162 0 323 -1 358 l0 62 -42 -1 c-24 0 -47 -2 -53 -5z"/>
<path d="M9066 5424 c-3 -26 -6 -163 -6 -305 l0 -259 24 0 c13 0 31 -3 40 -6
14 -6 16 22 16 270 0 164 -4 276 -9 276 -5 0 -13 10 -17 22 -6 21 -27 48 -37
48 -2 0 -7 -21 -11 -46z"/>
<path d="M1510 5326 c0 -114 -4 -126 -40 -126 -25 0 -28 -4 -34 -46 -7 -56 -6
-271 3 -409 l6 -100 33 1 32 2 1 -272 c2 -296 11 -496 21 -456 6 22 25 433 31
650 l2 75 38 3 37 3 0 276 0 276 -40 -6 -40 -5 0 114 0 114 -25 0 c-25 0 -25
0 -25 -94z"/>
<path d="M8570 5400 c0 -5 3 -10 8 -10 7 0 5 -511 -3 -519 -14 -14 0 -21 40
-21 l45 0 0 280 0 280 -45 0 c-25 0 -45 -4 -45 -10z"/>
<path d="M8740 5288 c0 -46 -2 -161 -5 -255 l-4 -173 39 0 40 0 0 98 c0 53 3
168 7 255 l6 157 -41 0 -42 0 0 -82z"/>
<path d="M8446 5212 c-3 -20 -6 -110 -6 -199 l0 -163 33 0 34 0 2 175 c1 96
-2 175 -6 174 -28 -5 -41 3 -36 20 3 10 0 21 -5 25 -5 3 -12 -11 -16 -32z"/>
<path d="M1226 5085 c-3 -9 -6 -49 -6 -89 0 -40 -3 -101 -6 -135 l-7 -61 -45
0 -45 0 6 -122 c4 -66 7 -264 7 -440 l0 -318 40 0 40 0 0 -204 c0 -126 4 -207
10 -211 6 -3 10 -17 10 -30 0 -13 -4 -27 -10 -30 -15 -9 -12 -25 5 -25 8 0 19
9 25 20 6 11 7 20 3 20 -9 0 -7 360 3 428 5 41 6 42 45 42 l39 0 0 408 c0 224
3 417 6 430 6 20 3 22 -39 22 -32 0 -47 5 -51 16 -3 9 -6 73 -6 142 0 123 -9
175 -24 137z m66 -446 c4 -63 7 -240 5 -394 l-2 -280 -60 0 -60 0 -3 397 -2
396 57 -3 58 -2 7 -114z"/>
<path d="M1827 4975 c-4 -26 -7 -76 -7 -111 0 -80 -6 -94 -39 -94 l-28 0 -6
-187 c-4 -104 -7 -241 -7 -305 l0 -118 25 0 c24 0 25 -2 26 -77 2 -220 -1
-247 -24 -266 l-22 -18 23 11 c15 7 22 7 22 0 0 -5 9 -10 20 -10 12 0 20 7 20
17 0 9 12 30 28 46 24 27 25 28 4 18 l-23 -12 3 148 3 148 48 3 47 3 0 273 c0
151 -3 288 -6 305 -7 31 -7 32 -50 25 l-44 -6 7 109 c3 66 2 117 -4 127 -8 15
-11 9 -16 -29z"/>
<path d="M9313 4863 c9 -2 23 -2 30 0 6 3 -1 5 -18 5 -16 0 -22 -2 -12 -5z"/>
<path d="M2873 4450 c0 -41 2 -58 4 -37 2 20 2 54 0 75 -2 20 -4 3 -4 -38z"/>
<path d="M3140 4226 c0 -3 26 -13 58 -22 31 -9 63 -19 70 -21 6 -3 12 -1 12 4
0 6 -26 16 -57 23 -32 7 -64 15 -70 17 -7 3 -13 3 -13 -1z"/>
<path d="M2015 3988 c-118 -87 -135 -102 -87 -73 34 20 95 64 171 122 2 2 2 5
0 7 -2 2 -40 -23 -84 -56z"/>
<path d="M2413 3989 c-17 -5 -43 -24 -58 -41 -24 -28 -27 -38 -23 -87 4 -45
10 -59 36 -82 43 -39 74 -45 128 -24 73 28 102 98 67 164 -32 61 -89 88 -150
70z m92 -64 c56 -56 14 -155 -60 -141 -47 10 -70 39 -69 88 2 74 78 105 129
53z"/>
<path d="M2427 3893 c-13 -12 -7 -51 8 -57 17 -6 47 3 57 18 18 27 -42 63 -65
39z m43 -23 c0 -5 -2 -10 -4 -10 -3 0 -8 5 -11 10 -3 6 -1 10 4 10 6 0 11 -4
11 -10z"/>
<path d="M9617 3953 c-12 -12 -7 -33 8 -33 17 0 19 9 7 28 -5 7 -11 9 -15 5z"/>
<path d="M1709 3782 c-184 -121 -358 -242 -347 -242 7 0 324 212 358 239 31
25 24 27 -11 3z"/>
<path d="M1199 3150 c51 -28 108 -59 125 -69 17 -11 56 -29 86 -41 30 -12 76
-35 101 -51 25 -16 50 -29 55 -29 5 0 -7 10 -26 22 -44 27 -419 218 -428 218
-4 0 35 -23 87 -50z"/>
<path d="M1104 3051 c-48 -29 -64 -59 -64 -119 0 -48 4 -58 34 -88 30 -30 40
-34 85 -34 44 0 56 5 87 33 113 103 -12 287 -142 208z m129 -52 c41 -44 38
-97 -8 -138 -39 -34 -60 -38 -100 -19 -51 23 -69 92 -39 149 28 55 98 59 147
8z"/>
<path d="M1174 2943 c1 -36 -3 -48 -14 -48 -11 0 -14 10 -12 38 2 32 0 37 -18
37 -27 0 -27 -48 1 -84 26 -33 34 -33 70 3 32 33 37 62 13 85 -28 29 -40 19
-40 -31z"/>
<path d="M9580 2970 c-10 -25 -10 -34 4 -55 20 -30 35 -31 64 -5 38 36 21 90
-27 90 -22 0 -31 -7 -41 -30z m58 -13 c17 -13 15 -37 -3 -37 -8 0 -15 7 -15
15 0 8 -7 15 -15 15 -8 0 -15 7 -15 15 0 15 23 11 48 -8z"/>
<path d="M267 2959 c7 -7 15 -10 18 -7 3 3 -2 9 -12 12 -14 6 -15 5 -6 -5z"/>
<path d="M8795 2946 c-278 -69 -411 -379 -280 -652 101 -210 365 -311 567
-217 77 36 175 124 211 190 56 104 73 255 41 364 -32 109 -128 230 -221 277
-94 48 -217 63 -318 38z m105 -28 c0 -10 2 -10 8 0 11 16 113 3 119 -15 8 -23
-44 -63 -81 -63 -30 0 -35 4 -39 28 -3 22 -4 20 -6 -10 -1 -27 3 -38 14 -38
42 0 130 -46 186 -98 71 -66 94 -106 120 -216 17 -72 18 -75 13 -26 -8 83 -15
124 -23 130 -3 3 -7 23 -7 45 -1 22 0 32 3 23 5 -21 23 -24 23 -4 0 7 8 20 17
27 15 12 16 12 10 -5 -5 -13 -3 -17 7 -13 20 8 46 -107 47 -205 2 -131 -29
-206 -121 -292 -134 -124 -264 -150 -430 -87 -120 46 -210 148 -251 283 -29
95 -23 218 14 301 32 71 120 165 184 197 85 43 193 64 193 38z"/>
<path d="M8884 2611 c-71 -78 -91 -120 -26 -54 31 31 60 51 72 50 21 -1 50
-51 50 -85 0 -26 -18 -32 -99 -32 l-67 0 8 -77 c3 -43 7 -83 7 -89 1 -7 22
-13 54 -13 28 -1 63 -3 77 -5 14 -2 37 -4 53 -5 25 -1 27 -4 27 -41 0 -23 5
-40 11 -40 15 0 2 314 -13 345 -12 23 -89 106 -98 104 -3 -1 -28 -27 -56 -58z"/>
<path d="M8657 2553 c-20 -27 -45 -56 -56 -66 -24 -19 -22 -41 10 -115 32 -76
106 -152 146 -152 4 0 6 73 3 162 -7 227 -32 267 -103 171z"/>
<path d="M355 2914 c34 -28 823 -409 831 -401 3 3 -121 64 -426 210 -69 32
-192 93 -275 133 -82 41 -141 67 -130 58z"/>
<path d="M7905 2306 c-83 -36 -135 -117 -135 -207 0 -88 44 -160 124 -201 53
-27 157 -21 211 12 78 48 113 155 84 257 -31 114 -178 185 -284 139z m55 -133
l1 -48 14 32 c19 44 57 68 85 53 18 -10 21 -18 18 -48 -3 -24 2 -50 14 -73 20
-38 15 -73 -13 -96 -28 -21 -89 -35 -131 -28 -79 14 -118 86 -58 108 35 13 38
27 10 52 -11 10 -20 26 -20 37 0 24 35 58 60 58 17 0 20 -7 20 -47z"/>
<path d="M8017 2143 c-14 -13 -6 -24 15 -21 27 4 36 28 11 28 -11 0 -23 -3
-26 -7z"/>
<path d="M7996 2065 c4 -8 10 -15 14 -15 5 0 10 -8 13 -17 4 -17 4 -17 12 0 4
10 2 23 -5 32 -16 20 -41 20 -34 0z"/>
<path d="M7962 2045 c0 -16 2 -22 5 -12 2 9 2 23 0 30 -3 6 -5 -1 -5 -18z"/>
<path d="M7927 2043 c-12 -12 -7 -33 8 -33 17 0 19 9 7 28 -5 7 -11 9 -15 5z"/>
<path d="M9397 1980 c-29 -34 -29 -59 -1 -91 12 -13 7 -22 -43 -65 -31 -27
-75 -63 -96 -80 l-39 -31 -70 42 c-101 63 -206 89 -333 83 -109 -5 -185 -30
-297 -95 -154 -90 -258 -275 -258 -457 0 -78 26 -184 62 -256 44 -87 171 -216
251 -254 237 -112 487 -74 663 99 69 68 107 128 141 224 62 170 25 398 -83
517 l-34 37 -48 -44 c-26 -24 -77 -68 -114 -98 -38 -30 -75 -65 -83 -77 -13
-21 -55 -51 -55 -41 0 18 116 142 215 230 66 58 150 134 188 168 64 59 68 61
96 49 16 -6 40 -10 53 -8 20 3 24 10 29 53 4 28 10 62 14 76 8 31 -1 36 -79
45 -50 6 -54 5 -79 -26z m-557 -424 c0 -168 -4 -257 -11 -261 -6 -4 -8 -26 -5
-53 6 -55 8 -153 7 -346 l-1 -139 -55 6 c-114 12 -315 123 -315 175 0 8 -6 12
-15 8 -10 -3 -28 14 -57 56 -70 105 -82 145 -83 288 0 115 2 130 27 182 83
177 202 275 393 324 28 7 65 13 83 13 l32 1 0 -254z"/>
<path d="M8530 1262 c0 -74 91 -220 138 -222 22 0 13 17 -23 44 -39 30 -80
102 -90 159 -7 38 -25 51 -25 19z"/>
<path d="M7550 1890 c8 -5 20 -10 25 -10 6 0 3 5 -5 10 -8 5 -19 10 -25 10 -5
0 -3 -5 5 -10z"/>
<path d="M7630 1856 c0 -2 7 -7 16 -10 8 -3 12 -2 9 4 -6 10 -25 14 -25 6z"/>
<path d="M870 1830 c0 -12 25 -30 41 -30 10 0 38 -9 63 -20 25 -10 46 -18 46
-16 0 2 -20 16 -45 30 -25 15 -45 31 -45 37 0 5 -13 8 -30 7 -16 -1 -30 -5
-30 -8z"/>
<path d="M7254 1642 c-60 -21 -141 -80 -182 -132 -57 -72 -87 -191 -72 -286
21 -130 97 -227 228 -292 73 -35 82 -37 177 -37 91 0 106 3 165 31 90 43 143
93 180 167 75 153 50 333 -64 455 -71 76 -145 105 -276 109 -82 3 -116 -1
-156 -15z m218 -13 c108 -23 196 -84 240 -166 102 -191 32 -423 -154 -509 -56
-26 -74 -29 -163 -29 -89 0 -106 3 -157 28 -126 62 -212 192 -212 322 -1 99
24 163 91 235 97 105 223 147 355 119z"/>
<path d="M7365 1470 c-10 -33 -16 -63 -12 -66 10 -10 39 44 44 86 8 61 -11 49
-32 -20z"/>
<path d="M7461 1486 l-23 -24 57 -56 c63 -61 67 -62 119 -7 29 30 29 31 10 52
-25 28 -87 59 -117 59 -13 0 -34 -11 -46 -24z"/>
<path d="M7236 1458 c-9 -12 -16 -34 -15 -48 1 -22 2 -21 9 7 4 18 13 40 20
48 7 8 10 15 7 15 -3 0 -13 -10 -21 -22z"/>
<path d="M7387 1363 c-4 -3 -7 -25 -7 -49 0 -38 4 -46 49 -83 l49 -41 42 41
c23 22 45 38 48 34 4 -4 -7 -19 -25 -35 -38 -34 -46 -50 -62 -113 -21 -85 12
-111 94 -73 72 33 90 63 90 148 0 71 -16 107 -35 78 -8 -13 -11 -13 -19 -1 -6
9 -18 12 -37 7 -60 -16 -89 -12 -92 10 -2 11 -16 35 -32 52 -28 31 -49 39 -63
25z"/>
<path d="M7347 1321 c-4 -17 -3 -21 5 -13 5 5 8 16 6 23 -3 8 -7 3 -11 -10z"/>
<path d="M7311 1276 c-14 -8 -31 -12 -38 -9 -21 8 -15 -11 17 -47 16 -19 29
-41 30 -49 0 -8 7 -11 20 -8 19 5 20 0 20 -94 0 -84 2 -99 16 -99 14 0 16 13
12 105 -4 113 2 125 42 85 21 -21 26 -11 10 21 -8 14 -21 19 -50 19 -44 0 -65
24 -57 66 2 13 4 24 3 24 0 -1 -12 -7 -25 -14z"/>
<path d="M8175 1610 c28 -12 37 -12 30 0 -3 6 -16 10 -28 9 -21 0 -21 -1 -2
-9z"/>
<path d="M1543 1353 c-7 -2 -52 -42 -100 -87 -111 -105 -176 -157 -300 -242
-86 -60 -303 -238 -303 -250 0 -2 44 31 98 74 53 43 140 109 192 147 177 129
264 200 349 283 47 45 83 82 81 81 -3 0 -11 -3 -17 -6z"/>
<path d="M1770 1319 c0 -5 5 -7 10 -4 6 3 10 8 10 11 0 2 -4 4 -10 4 -5 0 -10
-5 -10 -11z"/>
<path d="M1094 1265 c-6 -16 24 -85 37 -85 5 0 9 20 9 44 0 36 -4 45 -21 49
-12 3 -22 0 -25 -8z m31 -25 c3 -5 1 -10 -4 -10 -6 0 -11 5 -11 10 0 6 2 10 4
10 3 0 8 -4 11 -10z"/>
<path d="M1710 1239 c0 -5 5 -7 10 -4 6 3 10 8 10 11 0 2 -4 4 -10 4 -5 0 -10
-5 -10 -11z"/>
<path d="M1557 1166 c-17 -13 -16 -14 2 -19 11 -2 24 0 30 6 26 26 0 37 -32
13z"/>
<path d="M882 1143 c2 -13 15 -19 46 -21 24 -2 42 1 42 7 0 15 -34 31 -65 31
-20 0 -26 -4 -23 -17z"/>
<path d="M1496 1132 c-2 -4 4 -13 15 -20 16 -11 19 -9 19 8 0 19 -24 28 -34
12z"/>
<path d="M1670 1130 c0 -5 7 -10 16 -10 8 0 12 5 9 10 -3 6 -10 10 -16 10 -5
0 -9 -4 -9 -10z"/>
<path d="M2235 1102 c14 -14 145 -85 150 -81 2 2 -33 24 -78 48 -45 24 -77 39
-72 33z"/>
<path d="M1537 1023 c-2 -5 -7 -20 -11 -35 -5 -23 -3 -28 12 -28 14 0 18 8 19
35 1 32 -10 46 -20 28z"/>
<path d="M2590 920 c8 -5 20 -10 25 -10 6 0 3 5 -5 10 -8 5 -19 10 -25 10 -5
0 -3 -5 5 -10z"/>
<path d="M1325 856 c-68 -67 -82 -91 -42 -77 12 4 37 30 55 57 17 27 42 57 55
66 12 10 16 18 10 18 -7 0 -42 -29 -78 -64z"/>
<path d="M1214 885 c8 -8 20 -15 27 -15 9 0 8 4 -1 15 -7 8 -19 15 -27 15 -12
0 -12 -2 1 -15z"/>
<path d="M8361 839 c-13 -11 -22 -22 -19 -24 2 -3 15 6 28 20 28 30 24 32 -9
4z"/>
<path d="M1240 750 c0 -5 -6 -10 -12 -10 -14 -1 -82 -59 -76 -65 8 -9 108 56
108 70 0 8 -4 15 -10 15 -5 0 -10 -4 -10 -10z"/>
<path d="M8250 745 c-14 -16 -10 -18 14 -9 9 3 16 10 16 15 0 14 -16 11 -30
-6z"/>
<path d="M927 743 c-10 -10 -8 -41 3 -48 14 -9 50 13 50 30 0 23 -17 18 -24
-7 -6 -22 -7 -22 -17 -4 -9 14 -8 20 2 27 8 5 9 9 3 9 -6 0 -14 -3 -17 -7z"/>
<path d="M6620 744 c-123 -24 -217 -67 -291 -133 -77 -68 -104 -127 -102 -217
1 -82 23 -176 59 -254 27 -58 51 -89 96 -122 26 -18 27 -18 21 -1 -3 10 -16
36 -28 58 -24 42 -40 95 -29 95 4 0 33 -18 66 -40 33 -22 65 -40 70 -40 5 0 8
-12 6 -28 -4 -39 -30 -34 -50 11 -10 20 -20 37 -21 37 -7 0 -4 -37 5 -71 10
-35 11 -36 62 -36 28 -1 43 1 32 4 -14 4 -17 11 -12 36 8 40 6 39 52 29 37 -7
39 -10 36 -40 -3 -23 1 -32 11 -32 9 0 18 6 21 13 5 9 7 9 12 0 3 -7 16 -13
30 -13 17 0 25 7 30 25 4 18 13 25 30 25 14 0 27 -7 30 -15 5 -12 9 -11 23 5
9 11 31 23 49 26 29 6 32 4 32 -17 0 -13 5 -31 10 -39 7 -11 8 -3 4 26 -6 40
-5 42 26 53 18 6 34 11 36 11 1 0 10 -22 19 -50 16 -49 42 -72 32 -27 -20 83
-20 93 9 105 14 7 29 10 33 7 3 -4 6 -35 6 -70 l0 -63 52 45 c36 31 63 66 85
111 31 63 33 72 33 182 0 106 -2 120 -29 177 -67 146 -205 221 -416 228 -63 2
-126 1 -140 -1z m258 -29 c185 -44 302 -164 302 -309 0 -100 -86 -209 -217
-274 -145 -74 -364 -79 -499 -12 -77 37 -168 118 -196 174 -28 56 -28 146 1
206 49 102 172 188 310 215 90 18 223 18 299 0z m280 -541 c-31 -79 -46 -80
-37 -5 4 38 15 72 30 93 l24 33 3 -32 c2 -17 -7 -57 -20 -89z m-834 -24 c8
-25 17 -54 21 -65 l7 -20 -14 20 c-17 23 -63 129 -72 165 -12 43 43 -50 58
-100z m761 -87 c-21 -32 -30 -23 -32 35 -1 36 3 52 20 70 l22 24 3 -52 c2 -35
-2 -60 -13 -77z"/>
<path d="M6575 661 c-96 -29 -131 -47 -175 -91 -80 -80 -105 -185 -63 -265 29
-55 127 -145 158 -145 5 0 -3 8 -20 19 -52 31 -123 116 -135 159 -18 68 10
140 82 208 86 83 175 109 347 102 129 -5 167 -19 232 -80 56 -53 78 -91 85
-150 7 -63 -7 -102 -58 -159 -42 -46 -73 -65 -134 -84 -73 -22 -199 -31 -209
-15 -5 8 -4 11 2 7 6 -4 13 -1 16 6 3 7 39 22 81 32 42 11 75 24 73 30 -2 5 0
19 5 30 8 18 8 18 4 -3 -2 -13 0 -20 6 -16 5 3 7 16 3 28 -6 18 -11 52 -17
108 -1 9 -6 14 -10 12 -12 -8 -9 11 4 24 9 9 15 9 27 -1 10 -8 12 -8 8 -1 -6
11 19 29 35 26 7 -2 2 37 -7 46 -3 3 -5 -2 -5 -11 0 -28 -37 -30 -83 -3 -47
28 -89 32 -133 16 -34 -13 -29 -18 66 -68 61 -32 77 -46 87 -73 9 -27 8 -38
-2 -54 -15 -24 -87 -54 -131 -54 -20 -1 -38 -10 -52 -26 -28 -32 -56 -34 -47
-2 4 12 8 26 9 30 0 5 -25 17 -56 27 -63 19 -77 10 -25 -16 35 -18 48 -33 41
-46 -3 -4 -1 -8 5 -8 11 0 9 -19 -3 -38 -6 -10 -19 -12 -45 -8 -25 5 -32 4
-21 -3 27 -18 152 -34 219 -27 151 16 244 55 305 129 117 143 77 298 -101 388
-64 33 -72 34 -187 36 -93 2 -135 -2 -181 -16z"/>
<path d="M6740 570 c0 -5 7 -10 15 -10 8 0 15 5 15 10 0 6 -7 10 -15 10 -8 0
-15 -4 -15 -10z"/>
<path d="M6570 436 c0 -18 26 -55 41 -59 11 -3 19 -12 19 -21 0 -9 5 -16 11
-16 5 0 7 -4 4 -10 -3 -5 -2 -10 4 -10 5 0 13 5 16 10 10 17 25 11 25 -10 0
-23 27 -27 54 -7 16 12 16 13 -1 28 -10 9 -38 24 -63 33 -25 10 -60 29 -77 42
-18 14 -33 23 -33 20z"/>
<path d="M9355 733 c-7 -5 -9 -135 -7 -370 l4 -363 94 0 94 0 -2 368 -3 367
-85 3 c-47 1 -90 -1 -95 -5z m49 -343 c0 -181 -3 -332 -6 -335 -3 -4 -9 101
-12 232 -3 131 -7 282 -9 336 -2 82 0 97 13 97 13 0 15 -40 14 -330z m59 323
c-7 -2 -21 -2 -30 0 -10 3 -4 5 12 5 17 0 24 -2 18 -5z"/>
<path d="M1504 705 c-4 -8 -4 -22 0 -30 7 -20 36 -19 36 1 0 11 6 14 21 9 18
-6 20 -5 10 14 -14 25 -59 29 -67 6z"/>
<path d="M8173 674 l-28 -26 33 22 c29 20 39 30 28 30 -3 0 -18 -12 -33 -26z"/>
<path d="M5941 629 c-20 -22 -21 -32 -21 -326 l0 -303 30 0 30 0 2 310 c0 171
1 315 2 322 2 21 -22 19 -43 -3z"/>
<path d="M2480 622 c-123 -32 -205 -94 -252 -190 -30 -60 -33 -75 -33 -152 1
-75 5 -93 32 -150 40 -83 95 -130 150 -130 l38 1 -36 19 c-52 27 -98 78 -128
140 -37 78 -37 184 1 255 44 83 98 130 193 167 80 30 225 33 300 4 59 -23 136
-92 173 -156 23 -39 27 -56 27 -125 0 -64 -5 -90 -24 -129 -31 -62 -83 -113
-152 -149 l-53 -27 46 0 c40 0 52 5 95 44 113 102 152 269 90 391 -86 172
-259 241 -467 187z"/>
<path d="M7769 613 c-60 -31 -96 -77 -129 -161 -38 -100 -23 -184 46 -261 127
-142 307 -138 421 10 l46 59 158 -81 c87 -45 167 -90 178 -100 25 -24 31 -24
30 -1 0 12 -51 42 -179 104 l-179 87 5 63 c8 78 -6 131 -50 196 -29 44 -32 52
-20 66 12 14 12 14 -2 2 -14 -12 -24 -10 -78 15 -84 40 -170 41 -247 2z m193
-18 c53 -25 71 -42 62 -57 -5 -7 -7 -23 -5 -36 1 -13 -4 -25 -14 -28 -11 -5
-13 -10 -5 -19 16 -20 11 -168 -7 -186 -18 -18 -67 -7 -71 16 -2 11 -8 25 -14
30 -6 7 -9 7 -7 0 6 -25 -15 -44 -54 -50 -23 -4 -50 -14 -60 -23 -12 -10 -21
-13 -25 -6 -4 6 -17 10 -29 10 -20 0 -21 -2 -7 -17 12 -14 13 -18 2 -25 -7 -4
-10 -4 -7 0 4 4 -4 19 -18 34 -66 71 -73 146 -25 245 26 52 40 67 83 91 90 50
133 54 201 21z"/>
<path d="M7840 351 c0 -6 5 -11 10 -11 6 0 10 -7 10 -15 0 -8 5 -15 10 -15 7
0 7 6 0 19 -12 24 -30 36 -30 22z"/>
<path d="M7940 311 c0 -38 27 -50 36 -15 4 17 2 29 -7 35 -23 14 -29 10 -29
-20z"/>
<path d="M1060 608 c-38 -26 -52 -52 -25 -46 15 3 75 68 63 68 -3 0 -20 -10
-38 -22z"/>
<path d="M1899 584 c-7 -9 -94 -79 -192 -155 -174 -135 -217 -173 -119 -106
87 58 342 259 342 268 0 14 -16 10 -31 -7z"/>
<path d="M2475 536 c-57 -20 -79 -34 -121 -79 -82 -88 -96 -188 -41 -299 28
-57 76 -94 157 -123 139 -49 324 24 393 155 26 49 28 63 25 125 -9 143 -107
228 -278 241 -52 4 -79 0 -135 -20z m226 -23 c70 -23 143 -93 159 -154 22 -79
-8 -177 -72 -236 -37 -35 -130 -72 -195 -79 -108 -12 -204 38 -260 134 -61
104 -14 245 101 304 101 52 176 60 267 31z"/>
<path d="M2481 401 c-38 -38 -20 -86 47 -120 26 -14 42 -7 42 18 0 22 -19 41
-42 41 -22 0 -24 26 -3 34 8 3 29 3 46 -1 28 -5 30 -4 27 18 -3 21 -9 24 -50
27 -37 2 -51 -1 -67 -17z"/>
<path d="M2619 383 c-14 -37 -39 -94 -50 -115 -5 -10 -9 -27 -9 -37 0 -29 -15
-33 -35 -11 -10 11 -29 20 -42 20 -18 0 -23 -5 -23 -25 0 -28 31 -49 65 -42
17 3 25 -1 28 -15 7 -26 26 -22 37 7 11 30 13 30 46 9 20 -14 30 -15 49 -6 25
11 29 24 25 72 -3 38 -16 56 -50 70 -22 9 -30 18 -28 33 4 25 28 35 28 12 0
-9 6 -15 13 -12 16 5 10 39 -11 55 -23 18 -31 15 -43 -15z m35 -122 c16 -18
16 -20 -6 -35 -31 -22 -38 -20 -38 12 0 46 16 54 44 23z"/>
<path d="M951 524 c0 -11 3 -14 6 -6 3 7 2 16 -1 19 -3 4 -6 -2 -5 -13z"/>
<path d="M3370 537 c0 -6 77 -57 87 -57 4 0 -1 6 -12 13 -48 33 -75 49 -75 44z"/>
<path d="M910 485 c0 -8 4 -15 10 -15 5 0 7 7 4 15 -4 8 -8 15 -10 15 -2 0 -4
-7 -4 -15z"/>
<path d="M5815 480 c-6 -10 -11 -100 -19 -342 l-5 -138 32 0 33 0 -3 212 c-2
117 -6 228 -9 246 -5 32 -17 41 -29 22z"/>
<path d="M3333 354 c-20 -18 -22 -22 -7 -15 21 10 52 41 41 41 -3 0 -19 -12
-34 -26z"/>
<path d="M9068 369 c-16 -9 -18 -27 -18 -143 0 -73 3 -154 6 -180 l7 -46 88 0
89 0 1 153 c1 83 2 168 3 187 l1 35 -80 2 c-44 2 -88 -2 -97 -8z m117 -29 c-3
-5 -18 -10 -33 -10 -15 0 -33 -4 -41 -9 -9 -6 -19 -5 -26 2 -12 12 -5 14 93
25 7 1 10 -2 7 -8z"/>
<path d="M3701 366 c2 -2 38 -21 79 -43 41 -22 100 -54 130 -71 30 -18 60 -32
65 -32 11 0 -121 77 -207 121 -51 26 -80 36 -67 25z"/>
<path d="M3216 264 c-11 -7 -17 -16 -15 -19 3 -3 14 2 25 9 10 8 17 17 14 19
-3 3 -14 -1 -24 -9z"/>
<path d="M5694 246 c5 -19 2 -28 -9 -32 -11 -5 -15 -20 -14 -63 1 -32 4 -43 6
-26 10 68 23 46 23 -38 0 -55 4 -87 11 -87 17 0 8 262 -10 268 -10 3 -12 -2
-7 -22z"/>
<path d="M1293 246 c-63 -20 -125 -60 -166 -105 -35 -39 -77 -110 -77 -131 0
-6 42 -10 114 -10 112 0 114 0 172 35 67 40 94 43 133 14 16 -11 38 -19 50
-17 20 3 19 5 -14 42 -28 32 -35 36 -35 20 0 -10 -4 -15 -8 -9 -11 15 -42 18
-42 3 0 -7 -7 -3 -15 9 -20 28 -18 123 2 123 8 0 11 -4 8 -10 -3 -5 1 -10 9
-10 9 0 16 -7 16 -15 0 -8 5 -15 11 -15 5 0 7 5 3 12 -5 8 -2 9 10 5 10 -4 30
-7 44 -8 l27 -1 -25 -8 c-25 -8 -25 -8 -2 -9 15 -1 21 -5 17 -13 -4 -7 5 1 19
17 14 17 26 34 26 38 0 4 -21 18 -47 29 -60 26 -172 33 -230 14z"/>
<path d="M3134 199 c-19 -22 -19 -22 4 -10 12 6 22 16 22 21 0 15 -5 12 -26
-11z"/>
<path d="M4003 206 c23 -18 268 -129 273 -124 4 4 -157 82 -241 117 -28 12
-42 15 -32 7z"/>
<path d="M7579 203 c-13 -16 -12 -17 4 -4 16 13 21 21 13 21 -2 0 -10 -8 -17
-17z"/>
<path d="M3045 110 c-32 -33 -57 -61 -54 -63 2 -1 31 26 63 60 75 80 69 82 -9
3z"/>
<path d="M1640 139 c9 -17 7 -26 -15 -55 -30 -39 -26 -45 6 -12 l22 23 -6 -22
c-3 -13 -1 -23 4 -23 5 0 9 5 9 10 0 22 17 8 29 -25 8 -24 19 -35 32 -35 10 0
19 2 19 5 0 15 -52 103 -75 128 -31 32 -40 35 -25 6z"/>
<path d="M7506 143 c-6 -14 -5 -15 5 -6 7 7 10 15 7 18 -3 3 -9 -2 -12 -12z"/>
<path d="M1500 115 c0 -8 2 -15 4 -15 2 0 6 7 10 15 3 8 1 15 -4 15 -6 0 -10
-7 -10 -15z"/>
<path d="M7452 98 c-7 -7 -12 -15 -12 -20 0 -12 28 2 34 18 7 17 -6 18 -22 2z"/>
<path d="M8770 55 l0 -55 85 0 85 0 0 49 c0 46 -1 49 -31 55 -17 3 -56 6 -85
6 l-54 0 0 -55z"/>
<path d="M3613 90 c-25 -10 -43 -39 -43 -69 0 -18 6 -21 40 -21 42 0 52 12 23
29 -40 22 3 23 70 2 39 -13 106 -25 147 -28 68 -3 73 -2 56 11 -10 9 -53 30
-95 47 -79 34 -160 46 -198 29z"/>
<path d="M5548 83 c-13 -3 -18 -15 -18 -44 0 -35 3 -39 25 -39 15 0 25 6 25
14 0 7 3 28 6 45 7 32 2 35 -38 24z"/>
<path d="M5663 40 c0 -25 2 -35 4 -22 2 12 2 32 0 45 -2 12 -4 2 -4 -23z"/>
<path d="M4354 46 c11 -9 27 -16 35 -15 14 0 14 1 1 6 -8 3 -24 10 -35 15 -20
9 -20 9 -1 -6z"/>
<path d="M1627 20 c-3 -11 -1 -20 4 -20 5 0 9 9 9 20 0 11 -2 20 -4 20 -2 0
-6 -9 -9 -20z"/>
<path d="M3530 21 c-7 -15 -7 -21 0 -21 12 0 25 28 17 36 -3 3 -10 -4 -17 -15z"/>
<path d="M7365 19 c-4 -6 -5 -12 -2 -15 2 -3 7 2 10 11 7 17 1 20 -8 4z"/>
<path d="M3685 10 c3 -5 21 -10 38 -9 27 0 29 2 12 9 -28 12 -57 12 -50 0z"/>
<path d="M4435 10 c3 -5 16 -10 28 -10 18 0 19 2 7 10 -20 13 -43 13 -35 0z"/>
</g>
</svg>
